<?xml version="1.0" standalone="no"?>
<!DOCTYPE svg PUBLIC "-//W3C//DTD SVG 20010904//EN"
 "http://www.w3.org/TR/2001/REC-SVG-20010904/DTD/svg10.dtd">
<svg version="1.0" xmlns="http://www.w3.org/2000/svg"
 width="960.000000pt" height="720.000000pt" viewBox="0 0 960.000000 720.000000"
 preserveAspectRatio="xMidYMid meet">
<metadata>
Created by potrace 1.15, written by Peter Selinger 2001-2017
</metadata>
<g transform="translate(0.000000,720.000000) scale(0.100000,-0.100000)"
fill="#FBFAFB" stroke="none">
<path d="M2 6843 c0 -208 4 -339 9 -313 4 25 8 92 9 150 1 58 5 123 10 145 5
26 7 -10 5 -105 -3 -122 -2 -135 6 -85 21 127 24 125 23 -15 l-2 -145 9 165
c5 91 13 194 18 230 8 54 9 40 6 -75 -2 -91 0 -113 4 -63 3 42 8 79 11 81 3 3
5 -44 4 -104 -1 -60 3 -109 7 -109 5 0 9 26 9 58 0 102 13 312 19 312 3 0 6
-57 5 -127 -1 -103 0 -114 6 -58 5 54 7 31 8 -99 1 -93 4 -167 7 -165 2 3 7
97 11 210 3 112 10 229 14 259 7 44 8 30 7 -67 -1 -67 1 -125 6 -129 4 -4 8
49 8 117 1 68 4 138 8 154 4 17 5 -62 3 -175 -2 -112 0 -201 4 -198 4 4 9 78
11 165 3 87 8 183 12 213 5 34 6 -6 4 -105 -3 -174 2 -192 16 -50 8 86 8 81
11 -95 l3 -185 8 230 c5 126 10 236 13 245 2 8 5 -46 7 -120 3 -133 3 -134 8
-45 6 85 6 87 13 39 4 -28 4 -94 1 -147 -4 -56 -2 -97 3 -97 5 0 8 17 7 38 -3
45 8 152 14 135 8 -22 23 -14 23 12 0 26 -15 34 -24 13 -3 -7 -2 49 1 125 l6
137 -36 0 c-35 0 -36 -1 -40 -42 l-4 -43 -1 43 -2 42 -50 0 -50 0 -2 -42 -1
-43 -7 45 -7 45 -1 -42 c-1 -24 -6 -43 -11 -43 -5 0 -7 18 -4 40 l6 40 -81 0
-81 0 1 -357z"/>
<path d="M8862 7124 c-2 -59 -6 -85 -17 -94 -17 -14 -20 -46 -5 -55 6 -3 11
-27 12 -53 l1 -47 4 45 c3 31 7 40 14 30 6 -11 9 -8 9 12 0 14 -6 29 -12 32
-10 5 -10 7 0 12 7 3 12 24 12 47 0 67 7 38 13 -56 6 -81 5 -88 -10 -75 -15
12 -16 9 -10 -27 4 -22 7 -55 7 -72 0 -32 2 -33 39 -33 29 0 41 -5 44 -17 2
-10 3 -2 1 18 -11 105 -15 243 -8 236 5 -5 9 -21 10 -35 0 -15 1 -62 2 -105 1
-45 6 -76 11 -72 5 3 7 42 4 88 -2 45 -8 129 -11 187 l-7 105 -42 3 -43 3 -2
-43 -1 -43 -7 45 c-6 39 -7 34 -8 -36z"/>
<path d="M9005 7103 c3 -54 10 -134 15 -178 6 -44 10 -123 11 -175 l1 -95 19
24 c23 28 24 41 4 41 -17 0 -21 45 -5 55 6 3 9 30 8 58 l-1 52 -6 -45 -6 -45
-8 64 c-4 35 -6 100 -5 145 0 45 3 67 5 50 3 -26 8 -30 27 -27 13 3 27 0 30
-6 7 -11 -5 -15 -36 -12 -12 2 -18 -5 -18 -18 0 -15 6 -19 29 -19 15 1 33 -2
39 -6 13 -8 28 57 16 75 -4 8 -3 10 4 5 8 -5 12 6 13 36 1 33 5 24 14 -42 l13
-85 -1 90 c0 50 2 96 7 103 10 17 26 15 26 -3 0 -8 6 -15 13 -15 8 0 8 -3 -2
-9 -11 -7 -13 -26 -8 -87 9 -100 -1 -91 -12 12 l-8 79 -2 -61 c-2 -95 10 -184
25 -184 14 0 29 -137 22 -205 -3 -26 -5 -14 -7 35 -1 41 -6 93 -10 115 -5 25
-7 -26 -5 -135 2 -142 1 -160 -6 -93 -5 45 -11 135 -14 200 -8 178 -7 174 -15
138 -4 -17 -13 -29 -20 -27 -10 2 -12 -4 -7 -20 3 -13 6 -45 6 -71 0 -27 4
-46 9 -43 4 3 7 29 5 58 l-3 53 9 -50 c4 -27 8 -84 7 -125 l0 -75 -7 60 c-6
65 -17 58 -23 -15 -2 -25 -4 10 -5 78 -1 73 -6 122 -12 122 -6 0 -8 -43 -3
-120 l6 -120 -49 -2 -49 -1 43 -4 c23 -2 42 -8 42 -13 0 -5 -19 -11 -42 -13
l-43 -4 43 -1 c36 -2 44 2 52 21 6 15 8 -3 8 -63 -1 -71 -2 -77 -8 -40 -7 43
-7 42 -8 -22 l-2 -68 40 0 c29 0 40 -4 40 -15 0 -11 -12 -15 -45 -15 l-45 0 0
-40 c0 -31 -4 -40 -17 -40 -15 0 -16 -2 -3 -10 23 -15 30 -12 30 13 0 22 17
36 63 51 12 4 17 0 17 -13 0 -11 -10 -22 -22 -26 -14 -4 -18 -8 -10 -12 19 -7
16 -83 -4 -83 -9 0 -14 -6 -11 -12 2 -7 10 -13 18 -13 10 0 16 17 19 55 4 44
6 50 12 30 4 -14 8 -52 9 -85 l2 -60 7 45 7 45 1 -42 c2 -53 22 -57 22 -5 0
41 14 71 27 58 4 -5 2 -11 -4 -13 -8 -3 -12 -21 -12 -46 l2 -42 7 35 c4 19 8
27 9 18 1 -12 12 -18 44 -21 l42 -4 -42 -1 c-24 -1 -43 -6 -43 -12 0 -5 7 -10
15 -10 11 0 15 -11 15 -39 0 -30 4 -40 18 -43 14 -3 12 -9 -15 -35 -18 -17
-33 -34 -33 -37 0 -3 18 -6 40 -6 33 0 40 3 40 20 0 11 5 20 11 20 6 0 8 -8 4
-19 -4 -14 0 -21 12 -24 14 -4 13 -5 -4 -6 -13 0 -23 -5 -23 -11 0 -5 29 -8
70 -6 73 3 111 16 47 16 -26 0 -39 6 -47 19 -13 25 -13 31 0 31 6 0 10 -9 10
-20 0 -15 7 -20 25 -20 28 0 32 12 11 29 -8 6 -16 21 -19 31 -4 15 0 20 14 20
14 0 21 -9 26 -30 11 -60 23 -28 23 65 0 52 -4 95 -9 95 -5 0 -9 24 -7 53 1
37 -2 55 -13 64 -14 11 -13 12 7 13 22 0 32 20 10 20 -9 0 -8 3 2 9 10 7 1 11
-30 14 l-45 4 43 1 c43 2 58 22 29 39 -8 4 -16 16 -20 26 -3 9 -15 17 -26 17
-15 0 -21 -8 -24 -37 l-4 -38 -1 43 c-1 23 3 42 8 42 6 0 10 19 10 43 0 31 3
38 10 27 11 -17 12 -13 12 50 0 42 0 41 9 -15 6 -39 5 -61 -1 -63 -6 -2 -10
-13 -10 -24 0 -18 2 -19 17 -7 15 12 16 12 10 -3 -4 -12 -1 -18 9 -18 10 0 13
7 9 28 -4 22 -4 23 4 7 5 -11 9 -69 10 -130 0 -60 4 -211 7 -334 7 -210 6
-224 -10 -218 -10 4 -39 7 -66 7 -48 0 -49 0 -45 30 3 24 0 30 -15 30 -13 0
-18 5 -14 15 4 8 15 15 25 15 14 0 19 -7 20 -27 0 -17 3 -22 6 -13 11 27 32
41 60 38 26 -3 28 0 30 32 1 19 0 29 -3 23 -4 -9 -32 -13 -87 -13 -76 -1 -80
-2 -57 -15 l25 -14 -27 -1 c-16 0 -28 -4 -28 -10 0 -5 5 -10 10 -10 6 0 10 -9
10 -20 0 -11 7 -20 15 -20 8 0 15 -7 15 -16 0 -13 -3 -14 -13 -5 -8 6 -17 8
-20 4 -4 -3 -8 7 -8 23 l-1 29 -7 -30 c-5 -25 -3 -31 14 -37 17 -5 15 -6 -8
-7 -16 -1 -26 -4 -24 -8 3 -5 43 -7 89 -6 45 1 91 -1 101 -3 25 -8 21 -26 -5
-20 -15 4 -12 1 7 -9 35 -16 32 -17 -56 -15 l-65 1 5 -47 c4 -26 12 -49 19
-52 6 -2 12 3 12 11 0 9 6 18 13 20 10 4 10 6 0 6 -7 1 -13 6 -13 11 0 6 19
11 43 12 l42 1 -45 7 -45 7 58 1 57 2 1 -292 c1 -161 2 -311 4 -333 6 -72 15
-917 21 -1982 l7 -1041 -29 -5 -29 -4 28 -2 27 -1 0 -179 c0 -134 -3 -181 -12
-185 -10 -5 -10 -7 0 -12 7 -3 12 -24 12 -50 l0 -44 -72 -1 c-40 0 -82 -5 -93
-10 -14 -6 4 -8 58 -6 81 3 107 -9 35 -16 -37 -3 -35 -4 15 -5 50 -2 57 -5 57
-22 0 -16 -6 -20 -32 -19 -24 1 -27 3 -10 6 12 2 22 8 22 13 0 9 -73 5 -195
-10 -58 -7 -57 -8 40 -10 92 -3 96 -4 45 -11 -44 -6 -36 -6 38 -4 85 3 92 1
92 -16 0 -17 -8 -19 -72 -19 -42 1 -94 8 -123 18 -35 12 -65 15 -100 11 l-50
-6 65 -3 c63 -3 64 -3 20 -9 l-45 -7 70 -7 c39 -5 107 -9 152 -10 99 -2 112
-17 16 -18 -38 0 -90 -3 -118 -6 -27 -4 -65 -7 -82 -7 -18 0 -33 -4 -33 -9 0
-6 28 -7 73 -2 39 3 68 3 64 -2 -5 -4 -39 -11 -75 -15 -42 -4 -9 -5 88 -4 163
3 146 -4 -55 -23 -98 -9 -97 -9 55 -7 97 2 140 0 115 -5 -22 -4 -78 -9 -125
-10 -47 -1 -114 -5 -150 -9 -62 -7 -59 -7 40 -8 58 -1 135 2 173 7 37 4 64 4
60 0 -5 -4 -80 -12 -167 -18 -174 -12 -228 -24 -72 -16 61 3 95 1 91 -5 -3 -6
-35 -10 -70 -10 -35 0 -67 -5 -70 -11 -5 -7 4 -8 28 -4 20 4 43 2 54 -4 14 -8
3 -11 -52 -12 -38 0 -92 -5 -120 -9 -42 -7 -37 -8 30 -4 44 2 119 7 168 10 51
4 87 3 87 -3 0 -5 -15 -7 -34 -5 -51 6 -66 -4 -26 -16 l35 -10 -32 -1 c-18 -1
-33 4 -33 9 0 13 -150 13 -170 0 -17 -11 -11 -12 48 -10 24 1 42 -3 42 -9 0
-6 21 -11 48 -12 33 -1 17 -5 -56 -14 -129 -17 -159 -25 -64 -18 39 3 72 2 72
-3 0 -5 -25 -9 -55 -10 -30 0 -60 -5 -66 -11 -8 -8 19 -9 98 -6 59 3 105 3
102 -1 -4 -4 -58 -9 -120 -13 -114 -5 -159 -13 -81 -13 55 0 54 -20 0 -22
l-43 -1 45 -6 c43 -6 42 -7 -34 -15 -116 -12 -133 -23 -27 -18 60 3 96 1 105
-7 9 -7 40 -10 87 -7 72 5 72 5 -21 -9 -52 -7 -121 -14 -153 -13 -63 0 -93
-11 -36 -13 19 -1 42 0 52 1 82 8 235 14 229 8 -4 -3 -52 -9 -107 -12 -116 -7
-188 -16 -180 -24 3 -3 33 -5 67 -5 61 1 61 0 18 -7 -40 -6 -35 -7 40 -10 47
-1 77 -4 68 -7 -10 -2 -18 -12 -18 -21 0 -14 -1 -14 -12 0 -11 13 -25 15 -83
8 l-70 -7 58 -2 c50 -1 57 -3 57 -21 0 -14 -6 -20 -22 -19 -13 0 -17 3 -10 6
20 8 14 23 -10 23 -36 0 -68 -11 -62 -21 3 -5 17 -7 32 -4 23 4 24 4 7 -4 -16
-8 -11 -10 25 -12 32 -1 8 -7 -80 -20 -108 -15 -114 -17 -44 -12 63 4 82 2 86
-9 4 -10 -3 -13 -31 -11 l-36 3 35 -14 35 -14 -45 -3 c-41 -2 -39 -3 20 -9
l65 -7 -66 -1 c-46 -1 -70 -7 -79 -17 -20 -24 3 -39 58 -38 l47 1 -55 -9 c-30
-6 -86 -11 -125 -11 -47 0 -56 -2 -27 -5 57 -6 59 -33 2 -33 -34 0 -40 -3 -40
-22 0 -21 -1 -21 -13 -3 -11 14 -16 15 -22 5 -4 -7 -2 -16 6 -21 9 -6 -4 -9
-37 -9 -28 0 -80 -2 -115 -4 l-64 -5 74 11 c74 10 75 10 47 25 -21 11 -30 12
-36 3 -5 -7 -20 -9 -44 -5 -24 5 -36 3 -36 -4 0 -6 -15 -11 -32 -11 l-33 -1
40 -15 c31 -12 69 -14 165 -10 l125 4 -115 -14 c-165 -20 -171 -23 -30 -20 94
3 112 2 70 -5 -30 -4 -85 -9 -122 -11 -38 -2 -68 -7 -68 -12 0 -5 27 -6 60 -3
36 4 60 3 60 -3 0 -17 -40 -31 -83 -30 -67 3 -75 1 -82 -18 -3 -11 -23 -25
-46 -32 -39 -13 -40 -14 -17 -23 12 -5 49 -7 81 -4 60 5 80 -8 25 -17 -79 -13
-78 -14 2 -11 l85 4 -75 -11 c-41 -6 -78 -15 -82 -22 -6 -8 -8 -7 -8 2 0 6
-11 12 -25 12 -20 0 -25 -5 -25 -24 0 -13 -3 -31 -6 -40 -4 -11 -1 -16 10 -16
9 0 16 -8 16 -20 0 -17 -4 -19 -16 -12 -24 13 -105 2 -125 -17 -19 -19 -35
-151 -18 -151 6 0 9 7 6 15 -4 8 -2 17 3 20 6 4 10 -3 10 -14 0 -20 6 -21 95
-21 90 0 95 1 95 21 0 18 -2 19 -15 9 -9 -7 -18 -10 -22 -6 -3 3 -1 6 5 6 6 0
9 7 5 16 -5 14 -3 15 15 5 12 -7 22 -20 22 -31 0 -19 6 -20 153 -14 83 3 208
9 277 14 79 5 129 4 137 -2 7 -6 18 -6 30 0 27 14 183 21 183 8 0 -7 4 -6 8 2
5 8 24 11 53 9 24 -2 58 -1 74 3 51 11 55 5 55 -81 0 -72 2 -79 20 -79 20 0
20 7 20 3600 l0 3600 -52 0 -53 0 2 -83 c1 -45 5 -135 9 -199 5 -92 4 -118 -5
-118 -10 0 -12 19 -7 80 5 69 3 80 -11 80 -14 0 -15 9 -10 68 4 38 9 84 12
103 4 26 3 29 -4 14 -8 -17 -10 -14 -10 18 -1 20 -6 37 -12 37 -10 0 -9 -30 4
-85 2 -11 2 -13 -1 -5 -4 12 -7 11 -14 -5 -8 -19 -8 -19 -5 1 3 12 1 39 -3 60
-7 36 -8 34 -11 -26 l-2 -65 -8 60 c-4 42 -6 24 -4 -60 l3 -120 -18 125 c-14
103 -18 116 -20 75 l-3 -50 -7 50 c-4 28 -8 42 -8 33 -2 -22 -25 -23 -42 -3
-15 18 -91 20 -108 3 -9 -9 -12 -9 -12 0 0 33 -73 -15 -83 -55 -3 -10 -6 2 -7
27 l-3 45 -6 -50 c-4 -35 -10 -50 -21 -50 -11 0 -17 15 -21 50 l-5 50 -5 -45
-6 -45 -1 43 c-2 35 -5 42 -23 42 -19 0 -20 -4 -14 -97z"/>
<path d="M2736 6571 c-11 -13 -31 -34 -43 -48 -13 -13 -23 -28 -23 -33 0 -4
-20 -29 -45 -53 -25 -25 -45 -50 -45 -56 0 -6 -5 -11 -10 -11 -6 0 -14 -8 -17
-17 -4 -10 -16 -27 -28 -39 -11 -11 -31 -37 -45 -57 -14 -20 -28 -37 -32 -37
-5 0 -8 -7 -8 -15 0 -8 -5 -15 -11 -15 -12 0 -39 -25 -39 -37 0 -4 -16 -25
-35 -45 -19 -20 -35 -39 -35 -42 0 -3 -16 -23 -35 -43 -19 -20 -35 -43 -35
-51 0 -7 -4 -10 -10 -7 -5 3 -10 0 -10 -8 0 -8 -7 -17 -15 -21 -8 -3 -15 -12
-15 -19 0 -8 7 -20 15 -27 8 -7 15 -21 15 -31 0 -11 4 -19 9 -19 5 0 11 -8 14
-17 3 -10 22 -45 42 -78 19 -33 40 -70 47 -82 6 -13 15 -23 20 -23 4 0 8 -9 8
-20 0 -11 5 -20 10 -20 6 0 10 -9 10 -20 0 -11 5 -20 10 -20 6 0 10 -9 10 -20
0 -11 3 -20 8 -20 4 0 16 -17 27 -37 10 -21 25 -46 33 -55 19 -23 9 -48 -17
-41 -12 3 -21 9 -21 14 0 5 -11 9 -25 9 -14 0 -25 5 -25 10 0 6 -6 10 -12 10
-7 0 -35 11 -63 25 -27 13 -58 25 -67 25 -10 0 -18 5 -18 10 0 6 -11 10 -25
10 -14 0 -25 5 -25 10 0 6 -9 10 -19 10 -11 0 -22 4 -26 9 -3 5 -19 12 -35 16
-17 4 -30 11 -30 16 0 5 -7 9 -15 9 -8 0 -24 5 -35 10 -11 6 -29 15 -40 20
-11 6 -27 10 -35 10 -8 0 -15 5 -15 10 0 6 -8 10 -17 10 -10 0 -27 7 -37 15
-11 8 -28 15 -38 15 -10 0 -18 5 -18 10 0 6 -11 10 -25 10 -14 0 -25 5 -25 10
0 6 -11 10 -25 10 -14 0 -25 5 -25 10 0 6 -9 10 -19 10 -11 0 -23 5 -26 10 -3
6 -15 10 -26 10 -10 0 -19 5 -19 10 0 6 -8 10 -18 10 -10 0 -27 7 -38 15 -10
8 -29 15 -41 15 -13 0 -23 5 -23 10 0 6 -6 10 -14 10 -18 0 -76 32 -76 43 0 4
-13 7 -30 7 -16 0 -30 5 -30 10 0 6 -11 10 -25 10 -14 0 -25 5 -25 10 0 6 -9
10 -19 10 -11 0 -23 5 -26 10 -16 25 -30 8 -27 -30 2 -22 8 -40 13 -40 5 0 9
-8 9 -18 0 -10 4 -22 9 -28 5 -5 16 -33 26 -61 9 -29 21 -55 26 -58 5 -4 9
-17 9 -31 0 -13 5 -24 10 -24 6 0 10 -11 10 -24 0 -13 7 -29 15 -36 8 -7 15
-21 15 -31 0 -10 5 -21 10 -24 6 -3 10 -15 10 -26 0 -19 3 -27 34 -86 9 -17
16 -38 16 -47 0 -9 5 -16 10 -16 6 0 10 -11 10 -25 0 -14 3 -25 8 -25 4 0 18
-34 31 -76 13 -42 30 -82 38 -89 7 -8 13 -25 13 -39 0 -14 5 -26 10 -26 6 0
10 -9 10 -19 0 -11 7 -26 15 -35 8 -8 15 -26 15 -40 0 -14 5 -26 10 -26 6 0
10 -11 10 -25 0 -14 5 -25 10 -25 6 0 10 -11 10 -24 0 -14 5 -28 10 -31 17
-10 11 -25 -9 -25 -11 0 -26 -7 -35 -15 -8 -8 -24 -15 -35 -15 -11 0 -23 -4
-26 -10 -3 -5 -15 -10 -26 -10 -11 0 -30 -5 -42 -12 -12 -7 -31 -13 -42 -15
-11 -2 -24 -8 -29 -13 -6 -6 -20 -10 -32 -10 -13 0 -26 -4 -29 -10 -3 -5 -17
-10 -31 -10 -13 0 -24 -4 -24 -10 0 -5 -16 -12 -35 -16 -19 -3 -38 -10 -41
-15 -3 -5 -14 -9 -24 -9 -11 0 -43 -11 -72 -23 -63 -29 -119 -47 -140 -47 -9
0 -21 -7 -28 -15 -7 -8 -23 -15 -36 -15 -13 0 -24 -4 -24 -10 0 -5 -8 -10 -17
-10 -21 0 -80 -18 -116 -36 -16 -8 -37 -14 -48 -14 -10 0 -19 -4 -19 -10 0 -5
-13 -10 -29 -10 -16 0 -31 -6 -35 -15 -3 -9 -18 -15 -35 -15 -16 0 -33 -4 -36
-10 -3 -5 -15 -10 -26 -10 -19 0 -26 -2 -87 -33 -19 -9 -45 -17 -58 -17 -13 0
-24 -4 -24 -9 0 -5 -12 -11 -28 -14 -64 -13 -87 -21 -100 -34 -7 -7 -24 -13
-38 -13 -17 0 -24 -6 -24 -19 0 -23 9 -30 44 -33 14 -1 26 -6 26 -10 0 -4 11
-8 25 -8 14 0 25 -4 25 -10 0 -5 8 -10 18 -10 9 0 30 -7 46 -15 15 -8 37 -15
47 -15 10 0 21 -4 24 -10 3 -5 17 -10 31 -10 13 0 24 -4 24 -8 0 -4 21 -13 48
-21 26 -7 58 -17 72 -23 45 -18 95 -40 112 -49 10 -5 29 -9 42 -9 13 0 26 -5
28 -11 2 -6 16 -12 31 -12 15 -1 27 -5 27 -9 0 -3 26 -14 58 -24 31 -10 59
-21 62 -24 3 -4 16 -10 30 -13 14 -3 54 -17 90 -30 36 -14 101 -38 145 -54 44
-15 82 -30 85 -33 3 -3 32 -14 65 -25 33 -10 67 -22 75 -26 40 -20 98 -37 104
-32 3 4 6 1 6 -5 0 -6 13 -13 30 -17 16 -4 32 -11 35 -16 4 -5 17 -9 30 -9 13
0 27 -4 30 -10 3 -5 17 -10 31 -10 13 0 24 -4 24 -10 0 -5 9 -10 19 -10 11 0
34 -8 53 -17 61 -30 68 -33 84 -33 11 0 14 -5 9 -17 -4 -10 -16 -42 -27 -70
-12 -29 -25 -53 -29 -53 -5 0 -9 -11 -9 -25 0 -14 -4 -25 -10 -25 -5 0 -10 -9
-10 -20 0 -11 -4 -20 -10 -20 -5 0 -10 -8 -10 -18 0 -10 -7 -27 -15 -38 -8
-10 -15 -27 -15 -36 0 -10 -4 -18 -10 -18 -5 0 -10 -9 -10 -19 0 -11 -4 -23
-10 -26 -5 -3 -10 -15 -10 -26 0 -10 -4 -19 -9 -19 -5 0 -12 -13 -16 -30 -4
-16 -11 -32 -16 -35 -5 -4 -9 -15 -9 -26 0 -10 -4 -19 -10 -19 -5 0 -10 -7
-10 -15 0 -8 -5 -24 -10 -35 -5 -11 -15 -29 -20 -40 -5 -11 -10 -27 -10 -35 0
-8 -4 -15 -10 -15 -5 0 -10 -8 -10 -19 0 -10 -7 -24 -15 -31 -8 -7 -15 -23
-15 -37 0 -14 -4 -21 -10 -18 -6 3 -10 -5 -10 -19 0 -14 -5 -28 -10 -31 -6 -3
-10 -14 -10 -24 0 -10 -6 -24 -14 -30 -8 -7 -17 -24 -20 -39 -8 -33 -38 -96
-48 -100 -5 -2 -8 -15 -8 -28 0 -13 -4 -24 -9 -24 -5 0 -11 -10 -14 -22 -2
-13 -7 -30 -9 -38 -3 -8 -3 -12 -1 -7 3 4 16 7 29 7 13 0 24 5 24 10 0 6 6 10
14 10 8 0 21 6 28 13 7 7 28 20 46 28 17 7 32 17 32 21 0 5 6 8 14 8 18 0 76
32 76 43 0 4 9 7 20 7 11 0 20 4 20 9 0 5 11 12 25 15 14 4 25 11 25 16 0 6 9
10 20 10 11 0 20 4 20 8 0 4 12 13 28 19 36 15 86 46 90 56 2 4 10 7 18 7 8 0
32 11 54 25 22 14 44 25 50 25 5 0 10 3 10 8 0 7 30 25 63 38 9 3 17 10 17 15
0 5 7 9 15 9 9 0 26 6 38 14 34 22 128 75 167 94 19 9 38 22 43 27 11 14 -1
-48 -18 -98 -8 -23 -15 -54 -15 -69 0 -16 -4 -28 -10 -28 -5 0 -10 -15 -10
-34 0 -19 -4 -38 -10 -41 -5 -3 -10 -19 -10 -34 0 -15 -4 -31 -10 -37 -5 -5
-16 -43 -25 -84 -9 -41 -20 -79 -25 -84 -6 -6 -10 -23 -10 -38 0 -15 -4 -28
-9 -28 -5 0 -12 -18 -15 -40 -3 -22 -9 -58 -12 -80 -3 -22 -10 -40 -15 -40 -5
0 -9 -13 -9 -28 0 -16 -7 -37 -15 -48 -8 -10 -15 -36 -15 -56 0 -21 -4 -38
-10 -38 -5 0 -10 -15 -10 -34 0 -19 -4 -37 -9 -40 -5 -3 -11 -18 -14 -33 -3
-16 -15 -64 -27 -108 -11 -44 -24 -93 -27 -110 -3 -16 -9 -38 -14 -47 -5 -9
-9 -26 -9 -38 0 -11 -7 -31 -15 -43 -8 -12 -15 -39 -17 -60 -1 -20 -6 -37 -10
-37 -4 0 -8 -16 -8 -35 0 -19 -4 -35 -10 -35 -5 0 -10 -18 -10 -40 0 -22 -4
-40 -10 -40 -5 0 -10 -18 -10 -40 0 -22 5 -40 10 -40 6 0 10 5 10 10 0 6 11
10 25 10 14 0 25 6 25 13 0 7 10 14 22 14 13 1 24 7 26 13 2 5 11 10 20 10 10
0 26 7 36 15 11 8 28 15 38 15 10 0 18 3 18 8 0 4 20 15 45 25 25 11 45 23 45
29 0 5 4 7 9 4 4 -3 17 1 27 9 10 8 27 15 37 15 9 0 17 5 17 10 0 6 8 10 18
11 9 0 31 9 47 20 17 11 38 22 48 25 9 4 17 10 17 15 0 5 9 9 20 9 11 0 38 11
60 25 22 14 44 25 48 25 5 0 40 16 78 35 37 19 74 35 80 35 7 0 14 3 16 8 2 4
20 15 41 25 47 21 292 26 300 5 4 -10 8 -9 16 2 7 10 11 11 11 3 0 -10 27 -13
99 -13 55 0 102 -4 105 -9 3 -5 53 -9 110 -10 57 -1 115 -4 128 -7 12 -3 59
-7 103 -9 44 -2 106 -7 138 -10 72 -8 198 -16 345 -22 61 -2 112 -8 112 -13 0
-4 42 -9 93 -9 50 -1 106 -4 122 -7 17 -3 81 -8 143 -11 75 -3 112 -8 112 -16
0 -7 4 -6 10 3 6 10 10 11 10 3 0 -10 30 -13 114 -13 66 0 117 -4 121 -10 4
-6 53 -10 115 -10 60 0 111 -4 114 -9 3 -5 54 -9 113 -10 58 -1 111 -5 117 -9
6 -4 61 -10 121 -14 99 -6 249 -18 420 -33 33 -2 128 -8 210 -11 83 -4 152
-10 155 -14 3 -4 55 -8 115 -9 61 -1 112 -7 113 -12 2 -5 7 -7 12 -4 4 3 36 1
69 -3 34 -5 64 -5 66 -1 3 4 22 3 42 -1 21 -5 90 -11 153 -14 115 -5 303 -21
392 -32 35 -4 49 -2 53 8 3 7 -25 74 -61 148 -37 74 -67 141 -67 149 0 8 -9
23 -19 33 -10 10 -16 23 -13 28 4 6 2 10 -3 10 -6 0 -13 11 -16 25 -4 14 -11
25 -16 25 -6 0 -10 9 -10 20 0 11 -4 20 -10 20 -5 0 -10 11 -10 24 0 20 4 24
23 21 12 -3 58 -9 102 -15 44 -5 105 -15 135 -20 52 -9 114 -20 240 -41 146
-24 189 -30 235 -35 28 -3 54 -10 60 -15 5 -5 33 -9 61 -9 29 0 56 -5 59 -10
3 -5 28 -10 54 -10 26 0 51 -4 57 -9 10 -10 88 -21 173 -24 36 -1 56 2 58 11
3 6 0 12 -6 12 -11 0 -22 9 -106 86 -27 26 -57 51 -66 58 -23 16 -125 104
-171 148 -22 21 -43 38 -47 38 -4 0 -39 30 -77 68 -39 37 -88 81 -109 97 -21
17 -55 46 -76 65 -20 19 -54 49 -74 65 -20 17 -47 40 -60 53 -13 12 -26 22
-29 22 -2 0 -34 29 -70 65 -36 36 -68 65 -71 65 -6 0 -44 33 -95 80 -20 19
-49 44 -65 55 -15 11 -33 26 -39 33 -6 7 -62 65 -123 128 -62 63 -113 119
-113 125 0 5 -5 9 -11 9 -14 0 -33 20 -42 43 -5 12 -1 20 11 23 22 8 63 24 84
35 10 5 27 9 38 9 11 0 20 5 20 10 0 6 9 10 19 10 11 0 26 7 35 15 8 8 24 15
35 15 12 0 21 5 21 10 0 6 10 10 23 10 12 0 31 7 41 15 11 8 28 15 38 15 10 0
18 5 18 10 0 6 11 10 25 10 14 0 25 5 25 10 0 6 5 10 11 10 6 0 27 7 47 16 21
9 48 21 62 26 14 6 33 14 42 19 10 5 25 9 34 9 8 0 22 7 30 15 9 8 24 15 35
15 10 0 19 5 19 10 0 6 11 10 25 10 14 0 25 5 25 10 0 6 8 10 18 10 9 0 26 7
36 15 11 8 28 15 38 15 10 0 18 5 18 10 0 6 13 10 29 10 16 0 31 6 35 15 3 8
12 15 21 15 15 0 25 4 72 28 13 7 32 12 43 12 11 0 20 5 20 10 0 6 9 10 19 10
11 0 26 7 35 15 8 8 24 15 35 15 12 0 21 5 21 10 0 6 7 10 15 10 15 0 24 3 82
34 17 9 38 16 47 16 9 0 16 5 16 10 0 6 11 10 24 10 13 0 29 7 36 15 7 8 20
15 29 15 9 1 34 9 56 20 22 11 48 19 58 20 10 0 15 5 12 10 -3 6 4 10 18 10
14 0 30 7 37 15 7 8 23 15 36 15 13 0 24 4 24 9 0 5 11 12 25 15 14 4 24 11
22 17 -2 13 -53 69 -187 208 -52 54 -102 107 -111 117 -8 11 -27 28 -42 39
-15 11 -27 24 -27 29 0 5 -34 42 -75 83 -41 41 -75 77 -75 80 0 3 -29 34 -65
68 -36 35 -65 68 -65 74 0 7 -7 14 -15 17 -24 10 -18 19 28 42 23 13 60 33 82
47 22 13 65 36 95 52 30 15 78 42 107 60 29 18 57 33 63 33 5 0 10 5 10 10 0
6 9 10 20 10 11 0 20 5 20 10 0 6 9 10 20 10 11 0 20 4 20 8 0 5 18 17 40 27
22 10 40 22 40 27 0 4 7 8 15 8 15 0 54 19 65 31 3 3 22 14 43 25 73 36 77 39
77 46 0 5 11 8 24 8 13 0 26 7 30 15 3 8 12 15 21 15 8 0 15 5 15 10 0 6 9 10
20 10 11 0 20 5 20 10 0 6 6 10 13 10 18 0 67 24 67 33 0 4 8 7 19 7 10 0 30
11 45 25 15 14 34 25 42 25 7 0 14 5 14 10 0 6 9 10 20 10 11 0 20 5 20 10 0
6 9 10 19 10 10 0 22 7 25 16 4 10 14 14 26 11 13 -3 20 0 20 9 0 8 10 14 26
14 14 0 23 4 19 10 -3 6 1 13 10 16 12 5 13 9 4 20 -9 11 -28 12 -78 8 -36 -4
-71 -10 -76 -14 -6 -5 -55 -10 -110 -11 -55 -1 -105 -6 -110 -10 -6 -4 -62
-10 -125 -14 -63 -3 -116 -10 -118 -16 -2 -5 -53 -9 -113 -9 -60 0 -109 -4
-109 -9 0 -4 -55 -11 -122 -15 -68 -3 -141 -9 -163 -12 l-40 -5 25 20 c14 11
33 21 43 21 9 0 17 5 17 10 0 6 7 10 17 10 9 0 31 11 48 25 18 13 35 21 39 18
3 -4 6 1 6 9 0 18 -103 128 -119 128 -6 0 -10 4 -8 8 1 4 -37 47 -85 95 -49
47 -88 91 -88 97 0 5 -5 10 -11 10 -11 0 -39 24 -39 34 0 9 -99 104 -104 99
-2 -2 -7 5 -11 16 -3 11 -19 28 -36 38 -16 9 -29 23 -29 30 0 7 -4 13 -10 13
-5 0 -10 7 -10 16 0 8 -3 13 -8 10 -4 -2 -52 43 -107 100 -110 115 -286 293
-362 366 -26 26 -64 64 -83 85 -19 21 -38 37 -42 35 -5 -1 -8 5 -8 13 0 8 -7
15 -15 15 -8 0 -15 3 -15 8 0 4 -102 8 -227 10 -164 2 -229 6 -235 15 -6 9 -8
8 -8 -3 0 -12 -2 -12 -9 -1 -6 10 -10 10 -16 1 -6 -9 -10 -9 -16 1 -8 12 -11
11 -19 -1 -8 -12 -10 -12 -10 -1 0 11 -3 11 -15 1 -8 -7 -15 -8 -15 -3 0 5 -9
9 -20 9 -11 0 -20 -3 -20 -6 0 -6 -72 -5 -125 3 -35 6 -642 18 -1055 21 -74 1
-139 4 -145 7 -5 4 -278 9 -605 10 -327 2 -597 7 -600 11 -3 3 -293 8 -644 10
l-639 3 -21 -24z m1069 -85 c534 -7 976 -15 1140 -21 77 -2 306 -7 509 -10
203 -3 372 -8 377 -10 4 -3 182 -8 396 -11 356 -6 660 -16 854 -30 68 -5 78
-8 89 -30 8 -13 19 -24 27 -24 7 0 13 -7 13 -16 0 -8 5 -12 10 -9 6 3 10 2 10
-3 0 -13 69 -82 82 -82 5 0 6 -4 3 -10 -3 -5 1 -10 9 -10 9 0 16 -4 16 -10 0
-13 207 -220 220 -220 6 0 10 -5 10 -10 0 -6 30 -41 68 -79 170 -173 277 -287
274 -293 -1 -5 2 -8 8 -8 14 0 288 -278 278 -284 -2 -1 -14 -6 -28 -12 -63
-27 -260 -131 -275 -145 -5 -5 -17 -9 -26 -9 -10 0 -19 -3 -21 -8 -1 -4 -34
-22 -71 -41 -96 -49 -131 -81 -87 -81 11 0 20 4 20 9 0 5 60 11 133 15 135 6
281 17 467 36 58 5 155 13 215 16 61 3 130 9 155 14 89 18 148 22 155 11 3 -7
-2 -11 -14 -11 -12 0 -21 -4 -21 -9 0 -5 -8 -11 -17 -15 -18 -5 -53 -26 -63
-36 -12 -12 -51 -30 -65 -30 -8 0 -15 -4 -15 -9 0 -5 -8 -12 -17 -15 -33 -13
-63 -31 -63 -38 0 -5 -8 -8 -17 -8 -9 0 -24 -6 -32 -14 -20 -18 -101 -65 -123
-73 -10 -3 -18 -9 -18 -14 0 -5 -8 -9 -19 -9 -10 0 -24 -7 -31 -15 -7 -8 -19
-15 -26 -15 -8 0 -14 -4 -14 -10 0 -5 -9 -10 -20 -10 -11 0 -20 -3 -20 -7 0
-5 -18 -17 -40 -27 -22 -11 -40 -23 -40 -28 0 -4 -7 -8 -16 -8 -9 0 -28 -8
-42 -18 -15 -10 -40 -24 -57 -32 -16 -8 -32 -17 -35 -20 -12 -13 -60 -40 -70
-40 -14 0 -40 -25 -40 -39 0 -6 36 -47 80 -92 44 -44 80 -82 80 -85 0 -2 30
-35 68 -74 37 -38 101 -106 142 -150 41 -45 105 -113 143 -151 37 -38 67 -71
67 -74 0 -10 48 -55 58 -55 11 0 22 -36 14 -44 -3 -3 -14 -6 -24 -6 -10 0 -18
-4 -18 -10 0 -5 -11 -10 -25 -10 -14 0 -25 -4 -25 -10 0 -5 -9 -10 -21 -10
-11 0 -27 -7 -35 -15 -9 -8 -24 -15 -35 -15 -10 0 -19 -4 -19 -10 0 -5 -11
-10 -25 -10 -14 0 -25 -4 -25 -10 0 -5 -8 -10 -18 -10 -10 0 -26 -6 -37 -13
-11 -7 -39 -19 -62 -27 -24 -7 -43 -17 -43 -22 0 -4 -11 -8 -25 -8 -14 0 -25
-4 -25 -10 0 -5 -9 -10 -19 -10 -11 0 -26 -7 -35 -15 -8 -8 -24 -15 -35 -15
-12 0 -21 -4 -21 -10 0 -5 -9 -10 -19 -10 -21 0 -84 -30 -89 -42 -2 -5 -11 -8
-21 -8 -9 0 -39 -11 -67 -24 -27 -13 -66 -29 -86 -37 -21 -7 -38 -17 -38 -21
0 -4 -12 -8 -26 -8 -14 0 -32 -7 -40 -15 -9 -8 -24 -15 -35 -15 -10 0 -19 -4
-19 -10 0 -5 -11 -10 -25 -10 -14 0 -25 -4 -25 -10 0 -5 -7 -10 -16 -10 -9 0
-28 -6 -42 -14 -15 -7 -38 -18 -52 -24 -14 -6 -51 -22 -82 -36 -31 -14 -59
-26 -62 -26 -7 0 -90 -36 -129 -56 -16 -8 -37 -14 -48 -14 -10 0 -19 -4 -19
-10 0 -5 -7 -10 -15 -10 -8 0 -23 -4 -33 -9 -9 -5 -24 -12 -32 -15 -8 -3 -22
-10 -30 -15 -20 -12 -60 -28 -87 -36 -49 -14 -47 -15 279 -346 91 -93 169
-169 173 -169 3 0 16 -10 29 -22 13 -13 45 -41 71 -63 26 -22 64 -57 84 -77
19 -21 39 -38 44 -38 5 0 30 -21 57 -47 56 -54 121 -112 164 -145 16 -13 51
-44 78 -70 26 -27 50 -48 52 -48 12 0 211 -188 205 -194 -2 -3 -34 -1 -69 4
-36 5 -84 10 -107 10 -24 0 -43 5 -43 10 0 6 -26 10 -59 10 -33 0 -63 5 -66
10 -3 6 -28 10 -56 10 -27 0 -49 5 -49 10 0 6 -28 10 -65 10 -36 0 -65 4 -65
9 0 5 -27 12 -60 15 -33 3 -87 9 -120 12 -33 3 -60 10 -60 15 0 5 -23 9 -51 9
-28 0 -58 4 -68 9 -10 6 -42 11 -72 12 -30 1 -57 7 -61 13 -12 17 -10 -16 3
-53 6 -17 15 -31 21 -31 6 0 8 -6 5 -14 -3 -8 1 -20 9 -26 8 -7 14 -19 14 -26
0 -8 5 -14 10 -14 6 0 10 -7 10 -15 0 -8 4 -23 9 -33 5 -9 27 -53 48 -97 21
-44 41 -81 46 -83 4 -2 7 -15 7 -28 0 -13 4 -24 8 -24 9 0 42 -64 42 -81 0
-12 -171 -11 -210 2 -14 4 -83 11 -155 14 -71 4 -155 9 -185 10 -30 2 -104 7
-165 10 -60 3 -135 10 -165 15 -30 5 -102 9 -160 10 -57 1 -109 5 -115 9 -5 5
-59 10 -120 10 -60 1 -112 6 -115 10 -3 5 -54 9 -113 10 -60 1 -118 6 -130 10
-12 5 -67 9 -121 10 -55 1 -104 5 -109 8 -5 3 -66 9 -135 14 -70 5 -145 10
-167 13 -22 2 -107 7 -190 11 -150 7 -190 10 -233 19 -13 3 -66 6 -118 7 -52
1 -96 5 -99 8 -2 4 -55 8 -117 10 -62 1 -115 6 -118 10 -3 4 -57 9 -120 10
-63 2 -117 6 -120 9 -6 9 -22 10 -152 13 -60 1 -108 6 -108 10 0 5 -141 12
-230 11 -8 0 -22 2 -30 5 -8 2 -53 6 -100 9 -47 2 -98 5 -115 8 -16 3 -70 6
-118 7 -48 1 -90 6 -93 11 -7 12 -164 10 -164 -2 0 -5 -6 -10 -14 -10 -8 0
-45 -16 -82 -35 -37 -19 -72 -35 -79 -35 -7 0 -18 -7 -25 -15 -7 -8 -21 -15
-31 -15 -11 0 -19 -4 -19 -10 0 -5 -11 -10 -25 -10 -14 0 -25 -3 -25 -7 0 -5
-20 -17 -45 -28 -25 -11 -45 -23 -45 -27 0 -5 -11 -8 -25 -8 -14 0 -25 -4 -25
-8 0 -4 -22 -16 -50 -27 -27 -11 -50 -23 -50 -27 0 -4 -5 -8 -12 -8 -18 0 -88
-33 -88 -42 0 -4 -9 -8 -19 -8 -11 0 -23 -5 -26 -10 -3 -6 -15 -10 -26 -10
-20 0 -27 34 -9 45 6 3 10 19 10 35 0 16 5 32 10 35 6 3 10 24 10 46 0 21 5
39 10 39 6 0 10 18 10 41 0 24 4 38 10 34 6 -4 10 10 10 34 0 23 5 41 10 41 6
0 10 12 10 26 0 26 24 112 41 146 5 10 9 31 9 48 0 16 4 30 9 30 5 0 11 17 15
38 13 87 19 112 27 118 5 3 9 20 9 39 0 19 5 37 10 40 6 3 10 19 10 35 0 16 4
31 9 35 6 3 13 26 17 50 3 25 10 45 15 45 5 0 9 18 9 39 0 22 5 43 10 46 6 3
10 16 10 27 0 24 15 75 36 126 8 18 14 44 14 57 0 13 5 27 10 30 6 3 10 21 10
40 0 19 5 37 10 40 6 3 10 22 10 41 0 19 5 34 10 34 6 0 10 15 10 33 0 17 7
41 15 51 8 11 15 35 15 53 0 18 5 33 10 33 6 0 10 5 10 10 0 6 -11 10 -25 10
-14 0 -25 -3 -25 -7 0 -11 -58 -43 -76 -43 -8 0 -14 -3 -14 -8 0 -4 -20 -16
-45 -27 -25 -11 -45 -23 -45 -27 0 -5 -9 -8 -20 -8 -11 0 -20 -3 -20 -7 0 -5
-18 -17 -40 -27 -22 -11 -40 -23 -40 -28 0 -4 -9 -8 -19 -8 -11 0 -22 -4 -26
-9 -3 -6 -45 -29 -93 -52 -48 -23 -88 -46 -90 -51 -2 -4 -10 -8 -18 -8 -8 0
-14 -4 -14 -8 0 -5 -16 -15 -35 -22 -20 -8 -41 -20 -47 -27 -6 -7 -19 -13 -29
-13 -11 0 -19 -4 -19 -9 0 -5 -10 -13 -22 -17 -13 -4 -25 -10 -28 -13 -3 -4
-21 -15 -40 -24 -19 -10 -50 -26 -69 -37 -38 -21 -56 -18 -41 8 23 41 60 127
60 139 0 7 5 13 10 13 6 0 10 9 10 19 0 11 5 23 10 26 6 3 10 17 10 30 0 13 3
25 8 27 10 4 42 67 42 84 0 8 5 14 10 14 6 0 10 11 10 25 0 14 3 25 8 25 4 0
13 15 20 33 16 39 41 96 53 119 5 10 9 25 9 33 0 8 5 15 10 15 6 0 10 11 10
24 0 13 3 26 8 28 10 4 42 67 42 84 0 8 5 14 10 14 6 0 10 11 10 25 0 14 5 25
10 25 6 0 10 11 10 25 0 14 4 25 9 25 5 0 12 11 15 25 4 14 11 25 16 25 6 0
10 5 10 11 0 17 -27 39 -47 39 -11 0 -23 4 -28 9 -6 5 -35 16 -65 26 -30 10
-59 21 -65 26 -5 5 -19 9 -32 9 -13 0 -23 5 -23 10 0 6 -9 10 -20 10 -11 0
-43 11 -72 25 -28 14 -60 25 -70 25 -10 0 -18 5 -18 10 0 6 -13 10 -30 10 -16
0 -30 5 -30 10 0 6 -13 10 -30 10 -20 0 -30 5 -30 15 0 10 -10 15 -30 15 -16
0 -30 5 -30 10 0 6 -13 10 -30 10 -16 0 -30 5 -30 11 0 5 -4 8 -8 5 -5 -3 -21
2 -36 10 -16 7 -37 14 -47 14 -11 0 -19 4 -19 10 0 5 -16 12 -35 16 -19 3 -35
10 -35 15 0 5 -11 9 -24 9 -14 0 -28 5 -31 10 -3 6 -17 10 -30 10 -13 0 -25 4
-27 9 -1 6 -16 12 -33 15 -16 3 -31 10 -33 16 -2 5 -15 10 -28 10 -13 0 -24 5
-24 10 0 6 -13 10 -30 10 -16 0 -30 5 -30 10 0 6 -11 10 -24 10 -14 0 -28 5
-31 10 -3 6 -15 10 -25 10 -20 0 -83 30 -88 43 -2 4 -17 7 -32 7 -16 0 -32 4
-35 10 -3 6 -17 10 -31 10 -13 0 -24 5 -24 10 0 6 -10 10 -22 10 -13 0 -32 7
-42 15 -11 8 -30 15 -43 15 -13 0 -23 3 -23 8 1 17 19 28 75 46 33 10 68 22
77 27 10 5 27 9 38 9 11 0 20 5 20 10 0 6 13 10 29 10 16 0 31 6 35 15 3 9 18
15 36 15 16 0 30 5 30 10 0 6 10 10 23 10 12 0 31 7 41 15 11 8 30 15 42 15
13 0 26 5 29 10 3 6 19 10 36 10 16 0 29 4 29 9 0 5 13 12 30 16 16 4 32 11
35 16 4 5 17 9 31 9 13 0 24 5 24 10 0 6 9 10 21 10 11 0 30 5 42 12 12 6 31
12 41 13 11 1 22 7 24 13 2 7 16 12 32 12 16 0 30 3 32 8 4 9 98 42 121 42 9
0 17 5 17 10 0 6 9 10 19 10 11 0 26 7 35 15 8 8 26 15 40 15 14 0 28 5 31 10
3 6 17 10 31 10 13 0 24 5 24 10 0 6 10 10 23 10 13 0 32 7 43 15 10 8 29 15
40 15 12 0 24 6 27 13 6 17 -3 66 -14 73 -5 3 -9 19 -9 35 0 18 -4 28 -10 24
-6 -4 -13 7 -16 25 -4 17 -11 33 -15 36 -5 3 -9 14 -9 25 0 19 -27 85 -56 141
-8 14 -14 36 -14 48 0 11 -4 18 -10 15 -6 -4 -10 7 -10 24 0 17 -4 31 -10 31
-5 0 -10 14 -10 30 0 18 -6 33 -15 36 -8 4 -15 17 -15 30 0 13 -4 24 -10 24
-5 0 -10 9 -10 20 0 11 -4 28 -9 38 -22 45 -41 91 -52 127 -7 22 -17 44 -21
49 -4 6 -8 20 -8 33 0 13 -4 23 -10 23 -5 0 -10 11 -10 24 0 13 -7 29 -15 36
-24 20 -8 29 27 16 34 -12 119 -50 150 -67 10 -5 24 -9 32 -9 8 0 17 -7 20
-16 3 -9 12 -14 20 -11 8 3 22 0 32 -7 11 -7 38 -18 62 -26 23 -7 42 -18 42
-23 0 -6 3 -7 7 -4 3 4 16 1 27 -6 12 -8 39 -20 61 -27 22 -7 60 -23 84 -36
24 -13 52 -24 62 -24 11 0 19 -4 19 -10 0 -5 7 -10 15 -10 8 0 23 -4 33 -9 9
-5 35 -17 57 -27 22 -11 42 -21 45 -24 3 -3 16 -7 30 -8 14 -2 27 -8 28 -13 2
-5 13 -9 25 -9 12 0 31 -7 41 -15 10 -8 23 -12 27 -9 5 3 9 0 9 -5 0 -6 8 -11
18 -11 10 0 27 -7 38 -15 10 -8 27 -15 37 -15 9 0 17 -4 17 -10 0 -5 7 -10 17
-10 22 0 93 -32 93 -42 0 -4 6 -8 14 -8 8 0 36 -9 62 -20 26 -11 50 -18 53
-14 3 4 0 9 -6 11 -7 3 -13 11 -13 19 0 8 -10 31 -23 52 -12 20 -29 51 -37 67
-8 17 -25 44 -37 61 -13 17 -23 38 -23 47 0 10 -4 17 -9 17 -5 0 -12 8 -15 18
-13 32 -31 62 -38 62 -5 0 -8 6 -8 14 0 7 -16 40 -35 72 -19 32 -35 64 -35 71
0 7 -4 13 -9 13 -5 0 -11 8 -15 18 -5 16 -12 28 -48 84 -10 14 -18 33 -18 42
0 9 -4 16 -10 16 -5 0 -12 11 -16 25 -3 14 -11 25 -16 25 -5 0 -3 6 4 14 33
34 58 67 58 76 0 6 3 10 8 10 4 0 34 34 67 76 33 43 77 95 98 118 20 23 37 47
37 54 0 7 5 10 10 7 6 -3 10 -1 10 6 0 6 11 22 25 35 14 13 25 25 25 28 0 8
29 43 63 77 15 16 27 31 27 35 0 4 13 19 29 34 l28 27 304 -2 c167 -2 475 -6
684 -9z"/>
<path d="M3876 6362 c-143 -1 -254 -7 -261 -12 -7 -5 -15 -7 -19 -3 -11 11
-46 14 -46 3 0 -5 -58 -9 -137 -9 -76 0 -144 0 -150 0 -7 -1 -13 -14 -13 -30
0 -16 -5 -31 -12 -33 -15 -5 -12 -237 3 -252 5 -6 9 -25 9 -42 0 -18 4 -35 9
-39 6 -3 13 -26 17 -50 3 -25 10 -48 15 -51 12 -7 11 -51 -1 -59 -5 -3 -10 1
-10 10 0 8 -7 18 -15 21 -8 4 -15 11 -15 16 0 6 -20 30 -45 54 -25 23 -45 49
-45 57 0 8 -7 20 -15 27 -11 10 -15 36 -15 111 0 59 4 99 10 99 6 0 10 9 10
20 0 11 7 23 15 26 8 4 15 12 15 20 0 8 5 14 10 14 6 0 10 11 10 25 0 14 7 28
15 31 31 12 2 24 -59 24 -57 0 -66 -3 -80 -25 -9 -13 -16 -31 -16 -40 0 -8 -4
-23 -9 -33 -5 -9 -12 -25 -15 -34 -3 -10 -13 -18 -23 -17 -10 0 -13 3 -7 5 14
6 6 44 -8 44 -5 0 -7 -4 -4 -9 7 -11 -32 -56 -41 -47 -4 4 -3 10 2 14 6 4 17
20 25 37 8 16 25 39 38 51 12 12 22 29 22 38 0 19 -11 21 -28 4 -9 -9 -13 -8
-17 4 -9 24 -81 14 -105 -14 -11 -13 -19 -29 -20 -35 0 -7 -4 -13 -10 -13 -5
0 -10 -7 -10 -15 0 -8 -4 -15 -10 -15 -5 0 -10 -7 -10 -15 0 -8 -4 -15 -10
-15 -5 0 -10 9 -10 20 0 11 5 20 10 20 6 0 10 7 10 16 0 18 23 44 39 44 22 0
10 18 -16 25 -28 7 -27 7 -83 -62 -6 -7 -10 -17 -10 -23 0 -5 -3 -10 -8 -10
-11 0 -53 -95 -59 -136 -3 -19 -10 -37 -14 -40 -5 -3 -9 -23 -9 -44 0 -21 -4
-42 -10 -45 -5 -3 -10 -45 -10 -93 0 -48 -5 -133 -12 -189 -13 -115 -4 -164
48 -265 8 -14 14 -32 14 -40 0 -8 9 -24 20 -36 11 -12 20 -25 20 -29 0 -13 57
-73 69 -73 6 0 11 -4 11 -10 0 -5 6 -10 14 -10 19 0 32 -20 19 -29 -5 -3 -12
-13 -16 -23 -3 -9 -19 -19 -36 -23 -26 -5 -31 -11 -31 -36 0 -22 -5 -29 -20
-29 -11 0 -23 -7 -26 -15 -4 -8 -15 -15 -25 -15 -10 0 -19 -5 -19 -10 0 -12
-70 -80 -83 -80 -5 0 -15 -6 -22 -12 -33 -30 -45 -38 -55 -38 -5 0 -10 -4 -10
-10 0 -5 -9 -10 -20 -10 -11 0 -20 -4 -20 -8 0 -5 -18 -17 -40 -28 -22 -10
-40 -22 -40 -26 0 -5 -9 -8 -20 -8 -17 0 -66 -18 -112 -41 -10 -5 -34 -9 -54
-9 -27 0 -44 -8 -72 -35 -20 -19 -52 -42 -70 -52 -17 -10 -35 -26 -38 -35 -3
-10 -10 -18 -15 -18 -5 0 -9 -7 -9 -15 0 -8 -4 -15 -10 -15 -5 0 -10 -5 -10
-12 0 -6 -6 -19 -14 -27 -23 -25 -76 -131 -76 -151 0 -10 -7 -23 -15 -30 -8
-7 -15 -21 -15 -32 0 -10 -9 -28 -20 -40 -11 -12 -20 -28 -20 -35 0 -7 -4 -13
-10 -13 -5 0 -10 -7 -10 -15 0 -8 -7 -15 -15 -15 -8 0 -15 -9 -15 -20 0 -11
-4 -20 -10 -20 -5 0 -10 -7 -10 -15 0 -8 -3 -15 -7 -15 -5 0 -21 -20 -38 -45
-16 -24 -33 -45 -37 -45 -17 0 -8 -80 11 -99 17 -17 28 -19 83 -13 84 10 198
-17 198 -45 0 -7 3 -13 8 -13 4 0 21 -12 37 -26 37 -33 142 -84 173 -84 12 0
22 -4 22 -10 0 -5 7 -10 16 -10 8 0 29 -14 46 -31 17 -17 42 -35 55 -40 23 -9
32 -34 13 -41 -6 -2 -12 -14 -15 -28 -7 -38 -49 -140 -57 -140 -5 0 -8 -5 -8
-11 0 -6 -6 -17 -13 -24 -31 -36 -37 -46 -37 -65 0 -11 -4 -20 -10 -20 -5 0
-10 -4 -10 -8 0 -16 75 -13 107 5 18 10 33 21 33 25 0 5 6 8 14 8 18 0 76 32
76 43 0 4 7 7 15 7 37 0 175 114 175 145 0 8 5 17 10 20 6 3 10 13 10 21 0 8
43 57 95 110 52 52 95 102 95 110 0 8 4 22 9 32 5 9 14 29 22 45 7 15 18 27
25 27 13 0 144 75 153 88 8 11 54 42 63 42 9 0 148 -140 185 -187 15 -19 36
-45 45 -57 52 -63 62 -87 70 -161 18 -169 28 -243 37 -290 5 -27 10 -85 10
-128 1 -49 5 -76 11 -72 6 4 10 -5 10 -21 0 -15 14 -49 31 -76 24 -36 37 -48
56 -48 23 0 24 2 12 18 -8 9 -16 19 -19 22 -27 25 -37 98 -19 131 11 21 7 43
-27 181 -8 32 -14 74 -14 93 0 19 -4 35 -10 35 -5 0 -10 16 -10 35 0 19 5 35
10 35 6 0 10 -6 10 -14 0 -8 4 -16 8 -18 17 -6 62 -99 62 -127 0 -16 7 -34 15
-41 8 -7 15 -25 15 -41 0 -16 5 -29 10 -29 6 0 10 -15 10 -34 0 -19 4 -37 9
-40 5 -4 12 -24 16 -46 4 -22 11 -42 16 -46 5 -3 9 -21 9 -40 0 -19 5 -34 10
-34 6 0 10 -9 10 -20 0 -11 4 -20 9 -20 19 0 21 18 6 54 -8 19 -15 47 -15 61
0 14 -4 25 -10 25 -5 0 -10 15 -10 33 0 18 -7 42 -15 53 -8 10 -15 34 -15 52
0 17 -4 32 -10 32 -5 0 -10 18 -10 39 0 22 -5 41 -10 43 -6 2 -13 20 -17 41
-9 59 13 49 86 -39 6 -7 11 -24 11 -38 0 -14 4 -27 8 -30 5 -3 17 -36 27 -73
10 -37 22 -72 26 -77 5 -6 9 -22 9 -38 0 -15 6 -31 14 -35 8 -4 14 -17 14 -28
-1 -56 2 -65 25 -65 19 1 20 2 7 13 -8 7 -14 22 -12 35 2 13 -2 30 -9 39 -31
37 -8 129 29 117 42 -14 73 -32 107 -61 7 -7 16 -13 20 -13 3 0 17 -10 30 -22
52 -50 73 -68 79 -68 3 0 15 -9 26 -20 20 -20 50 -27 50 -11 0 5 -18 28 -40
52 -22 24 -40 47 -40 51 0 4 -56 64 -124 133 -68 69 -123 125 -121 125 2 0
-64 68 -146 150 -83 83 -154 150 -160 150 -5 0 -9 6 -10 13 0 6 -23 32 -50 57
-28 25 -71 67 -97 94 -26 27 -80 82 -120 122 -66 67 -85 102 -47 87 8 -3 15 0
15 6 0 15 37 14 44 -1 5 -10 7 -10 12 0 3 6 10 12 16 12 6 0 5 -7 -3 -16 -11
-13 -10 -17 3 -25 10 -5 23 -15 30 -22 7 -7 29 -25 48 -40 19 -16 55 -46 80
-68 95 -83 115 -99 128 -99 6 0 12 -4 12 -10 0 -5 7 -10 15 -10 8 0 15 -4 15
-10 0 -5 9 -10 20 -10 11 0 20 -4 20 -8 0 -5 10 -14 23 -20 12 -6 40 -23 62
-37 22 -14 48 -28 58 -31 9 -4 17 -10 17 -15 0 -5 7 -9 15 -9 8 0 15 -4 15
-10 0 -5 9 -10 20 -10 11 0 20 -4 20 -10 0 -5 7 -10 15 -10 8 0 15 -4 15 -10
0 -5 9 -10 19 -10 10 0 21 -7 25 -15 3 -8 12 -15 21 -15 8 0 15 -4 15 -10 0
-5 6 -10 14 -10 8 0 16 -5 18 -10 2 -6 13 -12 26 -13 12 0 22 -6 22 -12 0 -6
16 -17 35 -25 19 -8 35 -17 35 -21 0 -4 16 -13 35 -20 19 -7 35 -17 35 -21 0
-4 7 -8 15 -8 9 0 26 -11 39 -25 13 -14 29 -25 35 -25 7 0 21 -8 32 -19 11
-10 37 -27 59 -37 22 -10 40 -22 40 -26 0 -5 5 -8 11 -8 6 0 16 -6 23 -12 7
-7 30 -26 51 -43 21 -16 44 -36 51 -42 7 -7 17 -13 23 -13 6 0 11 -9 11 -19 0
-45 9 -51 80 -51 52 0 69 4 74 15 7 18 -27 55 -51 55 -9 0 -13 3 -10 6 4 4
-10 16 -31 27 -20 11 -39 23 -42 26 -3 4 -32 23 -65 41 -33 19 -66 40 -73 47
-7 7 -20 13 -28 13 -8 0 -14 5 -14 10 0 6 -7 10 -15 10 -8 0 -15 5 -15 10 0 6
-9 10 -19 10 -11 0 -21 3 -23 8 -4 10 -86 62 -98 62 -5 0 -10 5 -10 10 0 6 -7
10 -15 10 -8 0 -15 5 -15 10 0 6 -9 10 -21 10 -11 0 -27 6 -34 13 -33 29 -45
37 -55 37 -5 0 -10 5 -10 10 0 6 -9 10 -20 10 -11 0 -20 3 -20 8 0 7 -30 25
-62 38 -10 3 -18 10 -18 15 0 5 -7 9 -15 9 -9 0 -25 9 -37 20 -12 11 -28 20
-35 20 -8 0 -26 11 -41 25 -15 14 -32 25 -39 25 -7 0 -13 5 -13 10 0 6 -9 10
-20 10 -11 0 -20 4 -20 9 0 5 -8 12 -17 15 -33 13 -63 31 -63 38 0 5 -7 8 -15
8 -9 0 -26 9 -38 21 -12 11 -35 28 -52 36 -16 9 -32 19 -35 22 -3 3 -18 13
-35 21 -16 8 -40 25 -53 38 -13 12 -28 22 -35 22 -7 0 -19 9 -27 20 -8 11 -18
20 -23 20 -5 0 -18 11 -29 25 -11 14 -26 25 -34 25 -8 0 -14 5 -14 10 0 16 33
11 60 -10 14 -11 31 -20 38 -20 6 0 12 -4 12 -10 0 -5 5 -10 11 -10 6 0 25
-11 43 -25 33 -25 57 -31 69 -18 4 3 -4 12 -18 19 -46 24 -90 49 -95 55 -3 3
-21 12 -40 21 -19 9 -45 26 -57 37 -12 12 -27 21 -33 21 -14 0 -40 25 -40 38
0 5 8 8 18 7 26 -3 82 -28 82 -37 0 -4 9 -8 20 -8 11 0 20 -3 20 -7 0 -5 10
-13 23 -18 34 -17 131 -69 137 -75 3 -3 19 -12 35 -21 17 -8 61 -32 98 -53 38
-20 72 -35 75 -32 8 9 -18 107 -36 136 -27 42 -62 114 -62 128 0 6 -4 12 -9
12 -5 0 -11 17 -14 38 -3 20 -10 60 -16 87 -13 66 -14 252 -1 260 6 3 10 17
10 31 0 24 0 24 -27 7 -16 -10 -30 -20 -33 -24 -3 -3 -20 -12 -37 -20 -18 -8
-33 -17 -33 -21 0 -5 -8 -8 -18 -8 -10 0 -25 -9 -35 -20 -17 -20 -16 -22 15
-53 46 -44 88 -103 88 -121 0 -13 -14 -16 -83 -16 -80 0 -82 1 -94 28 -7 15
-15 58 -18 97 -3 38 -10 74 -15 79 -13 13 -13 93 -1 100 5 3 12 -5 15 -19 4
-14 11 -25 16 -25 6 0 10 -7 10 -15 0 -17 40 -21 55 -6 12 12 110 68 148 84
15 6 27 15 27 19 0 4 7 8 15 8 8 0 15 9 15 20 0 11 5 20 10 20 15 0 12 41 -5
74 -8 15 -15 37 -15 48 0 10 -4 16 -10 13 -6 -4 -10 7 -10 24 0 17 3 31 6 31
13 0 32 -28 39 -58 3 -18 10 -32 15 -32 4 0 11 -10 15 -22 7 -22 7 -22 12 -3
10 45 15 51 23 30 4 -11 4 -24 0 -30 -5 -5 -10 -24 -13 -41 -3 -17 -10 -41
-16 -52 -6 -11 -11 -32 -11 -46 0 -14 -4 -26 -9 -26 -11 0 -23 -115 -21 -210
1 -79 17 -178 32 -194 4 -6 8 -20 8 -33 0 -13 4 -23 9 -23 5 0 12 -11 15 -25
4 -14 11 -25 16 -25 6 0 10 -7 10 -15 0 -9 9 -28 20 -43 20 -27 38 -87 47
-153 4 -33 11 -40 61 -65 32 -16 59 -32 60 -36 2 -5 12 -8 23 -8 10 0 19 -4
19 -10 0 -5 7 -10 15 -10 8 0 15 -4 15 -10 0 -5 9 -10 20 -10 11 0 20 -4 20
-9 0 -5 11 -12 25 -15 14 -4 25 -11 25 -16 0 -6 7 -10 15 -10 8 0 36 -14 62
-30 26 -17 52 -30 59 -30 6 0 17 -7 24 -15 7 -8 21 -15 30 -15 10 0 20 -3 22
-7 4 -10 54 -41 91 -56 15 -6 27 -15 27 -19 0 -4 9 -8 20 -8 11 0 20 -4 20
-10 0 -5 9 -10 19 -10 11 0 21 -3 23 -7 2 -5 29 -21 61 -38 31 -16 57 -33 57
-37 0 -4 9 -8 19 -8 11 0 23 -4 26 -10 3 -6 15 -10 26 -10 10 0 19 -4 19 -10
0 -5 5 -10 11 -10 6 0 17 -7 25 -15 9 -8 24 -15 35 -15 10 0 19 -4 19 -10 0
-5 7 -10 15 -10 8 0 15 -3 15 -7 0 -5 14 -16 31 -25 25 -15 33 -15 44 -5 35
31 45 37 60 37 8 0 15 4 15 10 0 5 11 12 25 16 14 3 25 9 25 13 0 4 16 13 35
21 19 8 35 18 35 22 0 5 5 6 10 3 6 -3 10 -2 10 3 0 9 20 20 78 44 17 7 32 16
32 19 0 4 11 10 25 13 14 4 25 11 25 16 0 6 9 10 20 10 11 0 20 3 20 8 0 4 20
16 45 27 25 11 45 23 45 26 0 3 16 11 35 19 19 8 35 17 35 21 0 4 11 10 25 13
14 4 25 11 25 16 0 6 7 10 16 10 8 0 22 7 31 16 9 8 22 13 29 10 8 -3 14 0 14
7 0 7 16 19 35 27 19 8 35 17 35 22 0 4 7 8 15 8 9 0 23 6 31 13 8 6 20 17 27
22 12 10 98 57 144 79 13 6 23 14 23 19 0 4 7 7 15 7 8 0 15 4 15 8 0 4 12 13
28 19 29 12 84 44 92 54 3 3 21 14 40 25 19 10 37 21 40 24 3 3 31 19 62 35
32 17 58 33 58 38 0 4 9 7 20 7 11 0 20 4 20 8 0 5 16 17 35 28 19 10 35 22
35 26 0 5 8 8 18 8 9 0 29 11 44 25 15 14 34 25 43 25 8 0 15 4 15 9 0 5 13
14 28 20 15 7 39 22 53 34 13 12 41 31 62 42 20 11 37 23 37 26 0 4 15 7 33 6
28 -2 32 -6 35 -34 2 -18 7 -33 13 -33 5 0 9 4 9 9 0 9 61 41 78 41 14 0 42
-29 42 -43 0 -7 -36 -49 -80 -95 -44 -46 -80 -87 -80 -93 0 -5 -5 -9 -10 -9
-9 0 -50 -40 -187 -181 -28 -30 -68 -67 -88 -84 -20 -16 -42 -36 -50 -42 -7
-7 -17 -13 -21 -13 -8 0 -54 -52 -54 -62 0 -5 -9 -8 -21 -8 -11 0 -17 -4 -14
-10 3 -5 2 -10 -4 -10 -6 0 -21 -11 -35 -25 -14 -14 -29 -25 -33 -25 -5 0 -15
-9 -23 -20 -8 -11 -18 -20 -23 -20 -4 0 -18 -11 -31 -25 -13 -14 -26 -25 -29
-25 -3 0 -25 -18 -48 -40 -23 -22 -44 -38 -46 -36 -3 2 -19 -10 -36 -28 -18
-17 -48 -43 -67 -58 -19 -15 -47 -37 -61 -50 -15 -13 -43 -36 -64 -53 -56 -45
-235 -224 -235 -235 0 -10 116 -7 143 4 9 5 17 14 17 21 0 7 9 15 19 18 15 3
21 -1 23 -17 3 -18 11 -21 56 -24 59 -3 82 11 82 52 0 14 5 26 10 26 6 0 10 9
10 20 0 11 4 28 9 38 23 46 41 95 41 112 0 11 5 20 10 20 6 0 10 9 10 19 0 11
5 23 10 26 6 3 10 13 10 21 0 13 73 94 85 94 6 0 48 35 81 68 13 12 26 22 28
22 6 0 45 32 72 58 7 6 15 12 19 12 6 0 31 22 94 83 22 20 42 37 45 37 6 0 38
27 88 73 30 27 58 36 58 17 0 -5 18 -28 40 -51 22 -23 40 -46 40 -50 0 -14
111 -119 127 -119 8 0 21 -7 29 -15 9 -8 26 -15 40 -15 13 0 24 -4 24 -10 0
-5 7 -10 16 -10 9 0 26 -11 38 -23 32 -35 81 -67 105 -67 12 0 21 -4 21 -10 0
-5 19 -10 43 -10 24 0 48 -5 53 -10 18 -18 349 -8 414 13 30 10 69 20 85 23
17 3 32 10 33 15 2 5 10 9 18 9 8 0 14 3 14 8 0 4 14 23 30 42 17 19 33 43 36
53 3 9 10 17 16 17 6 0 9 3 5 6 -3 3 14 27 39 52 24 26 44 52 44 58 0 7 7 15
16 18 8 3 12 10 9 16 -3 5 -2 10 4 10 5 0 30 20 55 44 45 43 61 86 32 86 -8 0
-16 7 -20 15 -4 11 -20 15 -56 15 -27 0 -50 5 -50 10 0 6 -25 10 -55 10 -30 0
-55 5 -55 10 0 6 -18 10 -39 10 -22 0 -42 4 -46 9 -3 5 -18 12 -33 16 -15 3
-35 17 -45 30 l-18 25 64 30 c60 28 72 30 180 30 109 0 117 1 117 19 0 11 -4
23 -10 26 -5 3 -10 13 -10 21 0 9 -6 22 -12 29 -30 34 -38 45 -38 55 0 6 -4 8
-10 5 -5 -3 -10 1 -10 9 0 9 -4 16 -10 16 -5 0 -10 6 -10 13 -1 6 -17 26 -36
42 -20 17 -43 38 -52 48 -9 9 -22 17 -29 17 -7 0 -13 5 -13 10 0 6 -13 10 -29
10 -16 0 -31 5 -33 12 -4 10 -28 9 -110 -1 -103 -12 -183 -13 -203 -2 -5 3
-26 6 -45 8 -19 1 -36 6 -38 12 -2 6 -8 9 -12 6 -5 -3 -19 4 -30 15 -17 17
-19 24 -10 35 14 17 16 215 2 224 -6 3 -12 15 -14 26 -3 19 3 20 130 23 138 3
135 4 188 -46 21 -20 25 -32 22 -70 -2 -38 -8 -49 -25 -57 -13 -5 -23 -15 -23
-22 0 -7 -7 -13 -16 -13 -8 0 -13 -4 -10 -9 6 -9 67 8 116 31 54 26 60 41 60
137 0 50 5 93 10 96 12 7 10 64 -2 71 -4 3 -8 17 -8 30 0 25 -40 72 -104 122
-28 21 -28 22 -6 22 38 0 108 39 132 73 18 25 22 43 20 91 -1 55 -25 126 -44
134 -5 2 -8 9 -9 15 0 13 -49 55 -70 60 -8 2 -11 2 -7 0 4 -3 2 -10 -5 -18
-17 -18 -27 -9 -27 26 0 16 -4 29 -9 29 -5 0 -11 14 -15 31 -3 17 -10 28 -15
25 -11 -7 -21 40 -28 127 -2 37 -9 67 -14 67 -5 0 -9 7 -9 15 0 17 -92 115
-109 115 -7 0 -11 -21 -11 -55 0 -57 -8 -66 -34 -40 -8 8 -19 15 -25 15 -6 0
-11 5 -11 10 0 6 -7 10 -15 10 -8 0 -15 5 -15 10 0 6 -7 10 -15 10 -8 0 -15 4
-15 9 0 5 -10 13 -22 17 -13 4 -26 11 -29 17 -4 5 -18 10 -33 10 -19 0 -26 5
-26 18 0 11 -4 19 -10 19 -5 0 -12 11 -16 25 -3 14 -10 25 -15 25 -5 0 -9 6
-9 14 0 8 -6 21 -12 28 -19 20 -58 76 -58 83 0 10 -28 35 -39 35 -6 0 -11 7
-11 16 0 8 -4 12 -10 9 -5 -3 -10 -1 -10 5 0 13 -80 96 -80 83 0 -4 -5 0 -11
10 -6 9 -14 15 -18 12 -5 -2 4 -30 20 -62 15 -31 26 -60 23 -65 -3 -4 0 -8 5
-8 6 0 11 -7 11 -15 0 -8 7 -15 15 -15 8 0 15 -9 15 -19 0 -11 6 -21 13 -24
10 -4 10 -7 0 -18 -11 -11 -13 -10 -13 2 0 8 -9 25 -20 37 -11 12 -20 25 -20
30 0 5 -7 15 -15 22 -8 7 -15 21 -15 31 0 11 -4 19 -8 19 -5 0 -16 18 -25 40
-11 29 -21 40 -36 40 -12 0 -21 5 -21 10 0 16 -37 11 -44 -6 -3 -8 -10 -13
-15 -9 -6 3 -8 11 -5 18 3 9 -11 12 -50 11 -30 -1 -59 -5 -65 -8 -6 -4 -11 -4
-11 1 0 6 -137 10 -160 4 -22 -6 -31 -20 -22 -37 5 -11 16 -32 23 -49 8 -16
28 -43 44 -60 17 -17 31 -37 33 -45 2 -8 8 -16 13 -18 5 -2 9 -12 9 -22 0 -10
7 -20 15 -24 9 -3 15 -18 15 -35 0 -16 5 -33 10 -36 6 -3 10 -13 10 -21 0 -8
-4 -14 -10 -14 -5 0 -10 7 -10 16 0 8 -6 22 -12 29 -30 34 -38 45 -38 55 0 6
-4 8 -10 5 -5 -3 -10 3 -10 14 0 11 -4 23 -10 26 -6 4 -10 -8 -10 -29 0 -20 5
-36 10 -36 6 0 10 -11 10 -25 0 -14 5 -25 10 -25 6 0 10 -9 10 -21 0 -11 7
-27 15 -35 17 -18 20 -50 5 -59 -5 -3 -10 0 -10 8 0 8 -7 17 -15 21 -8 3 -15
15 -15 26 0 11 -4 20 -10 20 -5 0 -10 7 -10 16 0 9 -6 28 -14 42 -8 15 -20 48
-26 75 -7 26 -17 47 -21 47 -5 0 -9 6 -9 14 0 18 -32 76 -42 76 -5 0 -8 7 -8
15 0 8 -4 15 -10 15 -5 0 -10 4 -10 10 0 17 -34 50 -51 50 -8 0 -19 3 -23 7
-11 11 -71 11 -78 -1 -5 -7 -8 -7 -8 -1 0 6 -24 10 -57 9 -32 -1 -65 2 -74 7
-9 4 -20 5 -25 0 -5 -4 -70 -5 -144 -2 -297 13 -308 -15 -35 -93 28 -7 77 -19
110 -26 33 -7 69 -16 80 -20 11 -5 49 -11 85 -15 36 -3 75 -9 88 -12 27 -6 30
-33 3 -33 -58 0 -171 -108 -171 -163 0 -6 -9 -30 -21 -54 -32 -66 -6 -119 45
-91 9 5 45 12 79 15 52 4 66 2 85 -15 12 -11 22 -24 22 -31 0 -6 5 -11 10 -11
6 0 10 -6 10 -14 0 -7 7 -19 15 -26 8 -7 15 -21 15 -31 0 -11 5 -19 10 -19 6
0 10 -9 10 -20 0 -11 3 -20 8 -20 4 0 16 -16 26 -35 11 -19 23 -35 28 -35 4 0
8 -6 8 -13 0 -7 10 -23 23 -37 12 -14 28 -37 36 -52 8 -16 18 -28 23 -28 4 0
8 -5 8 -10 0 -6 11 -21 25 -34 14 -13 25 -28 25 -33 0 -6 11 -19 25 -29 14
-10 25 -24 25 -31 0 -7 5 -13 10 -13 6 0 10 -4 10 -10 0 -5 8 -18 18 -28 41
-45 92 -116 92 -131 0 -6 -4 -11 -10 -11 -5 0 -10 5 -10 11 0 13 -25 39 -39
39 -5 0 -12 -8 -14 -17 -4 -16 -5 -16 -6 -1 0 9 3 19 9 23 9 6 -63 85 -78 85
-4 0 -16 12 -27 26 -31 41 -52 64 -59 64 -9 0 -36 26 -36 34 0 4 -22 29 -50
56 -27 27 -50 47 -50 43 0 -3 -14 8 -30 26 -17 17 -34 31 -38 31 -4 0 -29 21
-57 45 -27 25 -55 45 -60 45 -6 0 -17 9 -25 20 -8 11 -17 20 -21 20 -4 0 -30
23 -59 50 -29 28 -55 48 -59 45 -5 -2 -14 6 -21 19 -7 13 -23 30 -36 37 -13 7
-24 19 -24 27 0 9 -3 12 -7 9 -7 -7 -66 34 -94 65 -9 10 -20 18 -23 18 -4 0
-14 6 -21 13 -33 29 -45 37 -55 37 -5 0 -10 6 -10 13 0 12 -62 57 -79 57 -5 0
-14 6 -21 14 -6 8 -18 12 -26 9 -9 -3 -14 1 -14 12 0 9 -4 14 -9 11 -4 -3 -19
4 -32 15 -20 17 -21 23 -11 39 7 11 12 29 12 39 0 11 5 23 10 26 6 3 10 19 10
35 0 15 5 30 12 32 7 3 9 12 5 22 -12 29 -34 5 -81 -86 -48 -94 -66 -117 -138
-187 -77 -75 -108 -101 -118 -101 -6 0 -10 -4 -10 -10 0 -5 -7 -10 -15 -10 -8
0 -15 -3 -15 -8 0 -4 -26 -15 -57 -25 -57 -18 -133 -20 -133 -4 0 5 -4 6 -9 2
-5 -3 -12 -1 -16 5 -3 5 -15 10 -26 10 -10 0 -19 5 -19 10 0 6 -7 10 -17 10
-9 0 -31 11 -49 25 -18 14 -37 25 -42 25 -6 0 -12 4 -14 9 -1 5 -9 11 -16 13
-20 5 -135 119 -151 151 -8 15 -18 27 -22 27 -4 0 -10 11 -13 25 -4 14 -11 25
-16 25 -6 0 -10 14 -10 31 0 16 -4 28 -9 25 -5 -3 -11 7 -14 23 l-6 29 -132 1
c-73 1 -135 3 -138 4 -3 1 -118 1 -255 -1z m483 -69 c17 -15 31 -33 31 -41 0
-7 5 -10 10 -7 6 4 10 -8 10 -29 0 -20 5 -36 10 -36 18 0 10 -26 -15 -48 -14
-12 -32 -22 -39 -22 -8 0 -18 -4 -21 -10 -3 -5 -15 -10 -25 -10 -10 0 -20 -3
-22 -7 -1 -5 -29 -21 -60 -37 -32 -16 -58 -33 -58 -37 0 -4 -11 -10 -25 -13
-14 -4 -25 -11 -25 -16 0 -6 -7 -10 -15 -10 -8 0 -15 -4 -15 -10 0 -5 -7 -10
-15 -10 -8 0 -15 -4 -15 -10 0 -5 -7 -10 -15 -10 -8 0 -15 -6 -15 -13 0 -8
-11 -20 -25 -27 -14 -7 -25 -17 -25 -22 0 -4 -6 -8 -14 -8 -7 0 -22 -11 -32
-25 -10 -13 -31 -27 -46 -30 -17 -4 -25 -11 -22 -20 3 -7 -35 -54 -88 -109
-51 -53 -118 -124 -148 -157 -30 -34 -76 -83 -102 -110 -27 -26 -48 -52 -48
-56 0 -5 -12 -17 -27 -28 -15 -11 -34 -28 -42 -39 -9 -10 -38 -42 -66 -71 -27
-29 -70 -76 -95 -105 -107 -123 -126 -140 -139 -127 -9 9 -14 9 -21 -3 -5 -8
-12 -11 -17 -7 -4 5 -3 11 2 15 12 8 44 61 51 83 3 9 17 22 30 29 13 8 24 22
24 32 0 11 5 16 10 13 6 -3 10 0 10 7 0 8 15 29 33 49 17 19 39 48 47 64 8 17
25 41 38 55 12 14 22 28 22 33 0 4 6 15 13 23 39 47 57 78 57 99 0 8 5 15 10
15 6 0 10 7 10 15 0 12 30 73 64 128 6 9 19 17 28 17 10 0 18 5 18 10 0 6 8
10 18 10 15 0 71 16 145 43 16 6 27 17 27 29 0 10 7 29 15 41 9 15 11 27 5 37
-5 8 -10 12 -10 8 0 -8 -28 13 -66 50 -13 12 -26 22 -29 22 -4 0 -25 16 -48
35 -22 19 -49 35 -59 35 -11 0 -18 7 -18 20 0 10 -8 23 -17 29 -14 7 -15 13
-6 22 6 6 9 17 7 24 -7 16 34 27 57 14 23 -12 29 -11 29 2 0 5 -4 7 -10 4 -5
-3 -10 -2 -10 3 0 15 32 24 44 12 13 -13 63 -13 71 0 3 6 18 10 33 10 15 0 33
4 41 9 10 7 5 11 -18 16 -17 4 -29 11 -25 16 7 12 64 12 64 -1 0 -5 9 -10 20
-10 25 0 25 9 3 26 -16 12 -15 13 14 14 17 0 34 -6 37 -12 4 -7 4 -3 2 10 -4
19 0 22 25 22 18 0 29 5 29 14 0 8 10 14 23 14 54 1 78 5 83 13 3 5 14 9 24 9
10 0 31 6 47 14 41 20 96 36 126 36 15 0 27 5 27 10 0 6 18 10 39 10 28 0 48
-8 70 -27z m946 -210 c-3 -16 -9 -45 -12 -66 -3 -20 -9 -40 -14 -43 -5 -3 -9
-20 -9 -37 0 -18 -7 -41 -15 -51 -8 -11 -15 -34 -15 -52 0 -18 -4 -36 -10 -39
-5 -3 -10 -22 -10 -41 0 -19 -4 -34 -10 -34 -5 0 -10 -15 -10 -34 0 -19 -5
-57 -12 -85 -9 -40 -9 -54 0 -63 9 -9 12 -3 12 25 0 20 5 37 10 37 6 0 10 18
10 40 0 22 4 48 9 58 5 9 12 25 15 35 3 10 10 15 16 12 13 -8 13 -125 0 -125
-5 0 -10 -9 -10 -19 0 -11 -6 -26 -14 -33 -8 -8 -16 -23 -18 -34 -3 -17 -14
-19 -101 -22 l-97 -3 0 45 c0 42 -2 46 -24 46 -21 0 -26 -6 -33 -42 l-9 -43
-47 -1 c-34 -1 -47 3 -47 12 0 19 -27 17 -34 -2 -5 -14 -19 -15 -94 -11 -48 3
-98 8 -112 11 -14 2 -38 5 -53 5 -20 1 -30 7 -34 21 -3 11 -9 20 -14 20 -5 0
-9 7 -9 15 0 8 -4 15 -8 15 -5 0 -16 15 -25 33 -23 43 -41 71 -72 110 -11 14
-31 47 -52 87 -29 55 -11 114 53 176 41 39 43 40 58 22 9 -10 16 -24 16 -31 1
-22 39 -123 40 -107 1 8 3 35 4 60 1 39 4 45 25 48 24 4 91 -26 91 -40 0 -5 9
-8 20 -8 11 0 20 -4 20 -10 0 -5 7 -10 15 -10 8 0 15 -4 15 -8 0 -12 107 -59
155 -68 60 -11 95 -12 101 -3 3 5 14 9 25 9 35 0 92 36 162 103 37 35 67 67
67 71 0 10 27 36 37 36 4 0 14 9 21 20 18 30 36 25 27 -7z m1806 -219 c30 -31
62 -63 72 -72 9 -9 17 -22 17 -29 0 -7 5 -13 10 -13 6 0 10 -7 10 -15 0 -8 5
-15 10 -15 6 0 10 -8 10 -17 0 -10 7 -27 15 -37 8 -11 15 -33 15 -48 0 -16 7
-31 15 -34 11 -5 12 -11 4 -25 -12 -23 -39 -25 -39 -4 0 8 -7 15 -16 15 -8 0
-13 4 -10 9 3 5 -10 11 -29 13 -28 3 -34 1 -30 -10 5 -14 3 -14 -57 5 -10 3
-18 0 -18 -6 0 -6 4 -11 10 -11 13 0 74 -64 87 -92 23 -49 43 -96 43 -103 0
-4 -8 -14 -17 -21 -16 -12 -16 -13 9 -14 25 0 26 3 30 59 2 44 0 57 -9 54 -7
-3 -13 2 -13 12 0 9 -4 14 -8 11 -11 -7 -42 30 -42 49 0 8 5 15 11 15 6 0 9
-6 6 -12 -3 -9 7 -13 34 -12 34 0 39 -2 39 -23 0 -13 5 -23 10 -23 6 0 10 7
10 15 0 8 5 15 10 15 6 0 10 19 10 43 0 23 5 49 10 57 16 25 12 -98 -5 -165
-12 -43 -13 -66 -5 -88 6 -19 6 -35 0 -46 -7 -12 -9 -7 -10 22 0 44 -18 49
-26 7 -7 -34 -8 -34 -55 -18 -42 14 -70 39 -51 46 6 2 12 8 12 13 0 6 -4 8 -9
4 -6 -3 -15 3 -21 12 -10 17 -10 17 -8 -1 2 -10 -3 -21 -11 -24 -10 -3 -11 2
-6 19 4 17 3 20 -3 10 -13 -19 -31 -5 -25 19 5 17 0 20 -26 20 -19 0 -30 4
-26 10 3 6 1 10 -5 10 -13 0 -40 25 -40 37 0 5 -9 15 -20 23 -11 8 -20 22 -20
31 0 9 9 19 20 22 12 3 20 14 20 25 0 12 5 24 10 27 6 4 10 -10 10 -34 0 -22
-5 -41 -12 -43 -8 -3 -5 -12 9 -27 20 -21 21 -21 26 -4 3 10 4 37 2 61 -3 31
0 42 11 42 15 0 17 24 4 55 -8 19 -9 19 -9 -1 -1 -12 -8 -25 -17 -28 -13 -5
-15 3 -12 57 3 53 6 62 21 59 16 -3 18 3 15 45 -2 40 -6 47 -21 45 -15 -3 -17
0 -8 17 6 11 11 29 11 40 0 32 13 26 71 -35z m-907 11 c15 -8 37 -15 47 -15
10 0 21 -4 24 -10 3 -5 17 -10 31 -10 13 0 24 -4 24 -10 0 -5 8 -10 19 -10 10
0 24 -7 31 -15 7 -8 16 -13 20 -10 4 3 27 -18 51 -47 24 -28 50 -57 57 -64 6
-7 12 -15 12 -18 0 -4 36 -62 57 -92 21 -28 34 -51 39 -66 4 -10 10 -18 15
-18 5 0 9 -9 9 -20 0 -11 3 -20 8 -20 6 0 34 -56 72 -145 17 -39 40 -116 40
-133 0 -10 -5 -23 -12 -30 -14 -14 -78 -16 -78 -2 0 6 -7 10 -15 10 -8 0 -15
5 -15 10 0 6 -15 26 -32 45 -43 44 -58 63 -58 70 0 3 -12 18 -27 34 -16 15
-35 38 -43 50 -8 13 -21 29 -27 37 -7 7 -13 17 -13 23 0 6 -6 11 -14 11 -8 0
-20 14 -28 30 -7 17 -16 30 -20 30 -5 0 -8 6 -8 14 0 8 -7 16 -15 20 -8 3 -15
12 -15 21 0 8 -4 15 -10 15 -5 0 -10 7 -10 15 0 8 -4 15 -8 15 -5 0 -15 12
-23 28 -8 15 -18 32 -24 39 -5 7 -16 19 -22 27 -7 8 -13 22 -13 31 0 8 -4 15
-10 15 -5 0 -12 11 -16 25 -3 14 -10 25 -15 25 -5 0 -9 6 -9 13 0 18 -24 67
-32 67 -5 0 -8 7 -8 15 0 19 27 19 64 0z m-2619 -106 c53 -19 74 -37 54 -50
-8 -5 -23 -9 -35 -9 -36 0 -87 -22 -113 -49 -27 -26 -71 -106 -71 -128 0 -7
-4 -13 -10 -13 -5 0 -10 -7 -10 -16 0 -8 -7 -22 -15 -30 -8 -9 -15 -24 -15
-35 0 -10 -4 -19 -10 -19 -5 0 -10 -7 -10 -15 0 -8 -4 -15 -10 -15 -5 0 -12
-11 -16 -25 -3 -14 -10 -25 -15 -25 -5 0 -9 -6 -9 -13 0 -7 -9 -23 -20 -35
-11 -12 -20 -23 -20 -26 0 -3 -24 -30 -53 -60 l-53 -56 -20 23 c-20 25 -63 57
-76 57 -5 0 -8 -5 -8 -11 0 -6 -7 -17 -15 -25 -8 -8 -12 -20 -9 -28 3 -7 -2
-19 -11 -26 -8 -7 -15 -21 -15 -31 0 -11 -4 -19 -8 -19 -5 0 -15 -11 -22 -25
-7 -14 -19 -25 -26 -25 -16 0 -56 -49 -91 -110 -15 -28 -31 -50 -36 -50 -4 0
-23 -16 -41 -35 -19 -19 -40 -35 -48 -35 -17 0 -48 -35 -48 -55 0 -8 -4 -15
-10 -15 -5 0 -10 -20 -10 -45 0 -49 -6 -54 -36 -27 -35 32 -70 42 -98 29 -29
-13 -34 -27 -11 -27 15 0 25 -6 60 -37 7 -7 16 -13 19 -13 3 0 15 -8 26 -17
27 -23 27 -73 1 -73 -11 0 -23 5 -26 10 -7 12 -155 14 -155 2 0 -5 46 -16 103
-26 56 -10 107 -19 112 -21 6 -1 -27 -5 -73 -10 -45 -4 -85 -11 -88 -16 -3 -5
-16 -9 -28 -9 -13 0 -29 -7 -36 -15 -7 -8 -19 -15 -26 -15 -8 0 -14 -4 -14
-10 0 -5 -7 -10 -15 -10 -8 0 -15 -4 -15 -10 0 -5 -7 -10 -15 -10 -8 0 -15 -7
-15 -15 0 -8 -7 -15 -15 -15 -8 0 -15 -3 -15 -7 0 -5 -14 -22 -30 -40 -17 -18
-30 -39 -30 -47 0 -9 -4 -16 -10 -16 -5 0 -10 -6 -10 -14 0 -8 -9 -31 -21 -50
-23 -40 -20 -39 -164 -36 -93 2 -128 10 -85 20 29 7 42 50 16 50 -9 0 -16 5
-16 10 0 6 -20 10 -45 10 -47 0 -59 15 -32 42 7 7 20 28 28 46 7 17 17 32 21
32 5 0 8 7 8 15 0 9 11 26 25 39 14 13 25 33 25 45 0 11 4 21 8 21 16 0 42 56
31 67 -17 17 41 113 68 113 5 0 26 16 46 35 45 42 121 65 219 65 37 0 70 5 73
10 3 6 -4 10 -18 10 -13 0 -26 3 -30 6 -7 7 29 44 43 44 10 0 59 28 70 40 3 3
19 12 35 20 17 8 36 21 43 28 8 7 18 10 23 7 5 -4 9 -2 9 4 0 6 13 17 30 26
16 8 47 32 68 53 21 20 50 46 64 57 14 11 27 27 30 35 2 8 22 24 43 35 31 16
42 30 55 68 9 26 22 53 28 59 7 7 12 18 12 25 0 7 5 13 10 13 6 0 10 6 10 13
0 7 11 24 25 39 14 15 25 34 25 43 0 8 5 15 10 15 6 0 10 7 10 15 0 8 5 15 10
15 6 0 10 5 10 11 0 6 7 17 15 26 8 8 12 20 8 26 -5 8 -9 6 -11 -5 -2 -10 -10
-18 -18 -18 -8 0 -14 -7 -14 -15 0 -8 -16 -29 -35 -48 -19 -19 -35 -38 -35
-43 0 -5 -11 -18 -25 -28 -14 -10 -25 -26 -25 -34 0 -8 -3 -13 -6 -9 -11 11 7
63 31 90 14 14 25 31 25 37 0 5 7 10 16 10 8 0 12 5 9 10 -3 6 -1 10 6 10 8 0
9 12 5 38 -6 33 -5 35 7 20 18 -23 27 -23 27 2 0 11 4 20 8 20 5 0 17 17 26
38 18 39 58 92 70 92 9 0 7 -28 -3 -48 -5 -9 -16 -32 -23 -49 -7 -18 -16 -33
-20 -33 -5 0 -8 -7 -8 -15 0 -8 3 -15 6 -15 11 0 33 34 34 50 0 8 11 24 25 34
14 10 25 25 25 33 0 16 24 43 38 43 5 0 15 6 21 14 7 8 37 18 66 21 30 4 60
13 66 21 6 8 25 14 41 14 17 0 27 4 23 10 -4 6 5 10 19 10 14 0 26 4 26 9 0 6
15 12 33 14 38 4 40 4 92 -14z m1592 -574 c18 0 33 4 33 10 0 6 3 6 8 -1 9
-13 52 -13 52 1 0 6 3 7 8 0 4 -5 14 -10 22 -10 8 0 18 5 23 10 4 6 11 4 17
-5 8 -12 10 -12 10 -1 0 11 3 11 15 1 12 -10 15 -10 15 0 0 10 3 10 14 1 11
-9 16 -9 21 0 6 8 10 7 16 -2 7 -12 9 -12 9 0 0 11 3 11 15 1 11 -9 15 -9 15
-1 0 7 5 9 13 4 17 -11 31 -10 40 2 6 7 10 6 14 -2 2 -7 11 -13 19 -13 10 0
14 -13 14 -42 0 -29 3 -38 9 -29 6 9 11 -4 14 -40 5 -56 23 -131 38 -161 5
-10 9 -36 9 -58 0 -22 4 -40 9 -40 5 0 12 -25 16 -55 3 -30 11 -55 16 -55 5 0
9 -22 9 -49 0 -28 4 -52 9 -55 5 -3 11 -23 14 -43 3 -21 9 -53 13 -71 5 -28 3
-34 -15 -39 -11 -3 -21 -9 -21 -14 0 -5 -11 -9 -25 -9 -14 0 -25 -4 -25 -10 0
-5 -9 -10 -19 -10 -11 0 -26 -7 -35 -15 -8 -8 -24 -15 -35 -15 -12 0 -21 -4
-21 -10 0 -5 -7 -10 -15 -10 -8 0 -29 -9 -47 -19 -17 -11 -35 -18 -40 -15 -4
3 -8 0 -8 -5 0 -6 -4 -11 -10 -11 -16 0 -125 -52 -128 -61 -2 -5 -15 -9 -28
-9 -13 0 -24 -4 -24 -10 0 -5 -7 -10 -14 -10 -8 0 -36 -11 -62 -25 -26 -14
-53 -25 -60 -25 -7 0 -14 -3 -16 -7 -4 -11 -67 -43 -84 -43 -8 0 -14 -4 -14
-10 0 -5 -11 -10 -25 -10 -14 0 -25 -4 -25 -10 0 -5 -6 -10 -13 -10 -8 0 -27
-7 -43 -15 -28 -13 -74 -11 -74 4 0 4 -10 8 -22 8 -13 1 -24 7 -26 13 -2 5
-10 10 -18 10 -16 0 -56 20 -65 33 -3 4 -15 9 -27 10 -12 0 -24 7 -26 14 -3 7
-15 13 -26 13 -11 0 -20 5 -20 10 0 6 -11 10 -25 10 -14 0 -25 3 -25 8 0 4
-20 16 -45 27 -25 11 -45 24 -45 28 0 5 -4 6 -9 2 -5 -3 -16 2 -24 10 -9 8
-25 15 -36 15 -12 0 -21 5 -21 10 0 6 -9 10 -20 10 -11 0 -20 5 -20 10 0 6 -6
10 -14 10 -17 0 -80 32 -84 43 -2 4 -12 7 -23 7 -10 0 -19 5 -19 10 0 6 -8 10
-19 10 -10 0 -24 7 -31 15 -7 8 -21 15 -31 15 -11 0 -19 5 -19 10 0 6 -8 10
-17 10 -28 0 -53 31 -53 67 0 18 5 33 10 33 6 0 10 26 10 57 0 31 4 70 9 87
10 32 46 266 60 391 5 39 12 82 15 96 l8 27 509 -2 c280 0 509 3 509 7 0 5 5
5 12 1 7 -5 27 -8 45 -9z m-2061 -26 c10 -17 6 -93 -5 -97 -6 -2 -11 -8 -11
-13 0 -6 -11 -22 -25 -37 -14 -15 -25 -32 -25 -39 0 -7 -6 -13 -13 -13 -7 0
-24 -11 -39 -25 -34 -31 -88 -35 -88 -6 0 38 30 79 89 120 11 8 28 39 37 68
15 47 20 53 45 53 15 0 31 -5 35 -11z m3444 -46 c41 -39 51 -63 27 -63 -33 0
-48 -90 -22 -127 8 -12 12 -29 9 -37 -5 -14 -9 -13 -28 7 -60 68 -86 100 -86
108 0 5 -4 9 -10 9 -5 0 -10 11 -10 25 0 14 5 25 10 25 6 0 10 7 10 15 0 9 6
18 14 21 8 3 17 16 20 30 9 33 19 30 66 -13z m296 -29 c29 -8 56 -20 59 -25 4
-5 21 -9 40 -9 19 0 37 -4 40 -10 3 -5 13 -10 21 -10 18 0 64 -40 64 -57 0 -7
5 -13 10 -13 6 0 10 -19 10 -43 0 -24 4 -47 9 -52 5 -6 13 -49 19 -96 10 -76
9 -95 -9 -165 -19 -75 -20 -117 -5 -213 3 -18 10 -39 16 -46 6 -7 9 -40 7 -74
-3 -47 0 -61 10 -61 8 0 12 4 8 9 -8 13 8 21 23 12 40 -24 26 -181 -16 -181
-7 0 -10 -4 -7 -10 3 -5 -1 -10 -10 -10 -8 0 -18 -7 -21 -15 -4 -10 -20 -15
-45 -15 -33 0 -39 3 -39 21 0 12 8 23 19 26 20 5 35 29 26 43 -2 4 -18 10 -34
13 -48 10 -61 31 -61 103 0 41 -4 63 -10 59 -5 -3 -10 -1 -10 4 0 6 -5 11 -11
11 -7 0 -22 12 -35 27 l-24 28 23 8 c22 8 22 9 2 23 -11 8 -28 21 -38 30 -33
27 -71 37 -148 38 -84 2 -109 15 -109 59 0 21 8 28 47 41 27 9 79 16 125 16
45 0 78 4 78 10 0 6 -43 10 -108 10 -95 0 -111 2 -130 20 -25 24 -30 70 -7 70
8 0 15 6 15 14 0 17 45 25 168 30 52 2 99 9 105 15 8 8 -33 11 -152 11 -178 0
-186 2 -197 59 -8 40 34 81 83 81 19 0 42 4 51 9 9 5 54 11 100 14 108 6 117
17 16 18 -229 4 -218 3 -222 24 -3 11 -9 24 -16 28 -8 6 -8 10 2 14 6 2 12 14
12 25 0 20 22 48 37 48 5 0 14 5 21 12 36 36 119 45 198 22z m-3683 -184 c25
-29 23 -92 -4 -110 -12 -8 -27 -21 -35 -27 -7 -7 -22 -13 -33 -13 -12 0 -21
-4 -21 -9 0 -6 -20 -13 -45 -17 -25 -3 -48 -10 -51 -15 -3 -5 -22 -9 -43 -9
-24 0 -44 -6 -52 -16 -12 -15 -11 -16 6 -11 38 12 156 35 276 53 47 7 79 -18
79 -61 -1 -36 -24 -66 -68 -86 -50 -22 -37 -48 14 -29 16 6 39 9 51 5 47 -11
17 -107 -39 -128 -10 -3 -18 -11 -18 -17 0 -5 -7 -10 -15 -10 -8 0 -15 -4 -15
-8 0 -5 -16 -14 -35 -22 -19 -8 -35 -20 -35 -27 0 -7 -11 -13 -27 -13 -21 0
-24 -3 -15 -12 10 -10 16 -10 30 0 9 7 28 17 42 23 14 5 38 17 54 25 44 22 92
18 99 -7 3 -12 0 -22 -9 -26 -8 -3 -14 -11 -14 -18 0 -8 -12 -23 -27 -34 -16
-12 -33 -25 -40 -31 -7 -5 -19 -10 -28 -10 -8 0 -15 -4 -15 -10 0 -5 -9 -10
-21 -10 -11 0 -27 -7 -35 -15 -9 -8 -24 -15 -35 -15 -10 0 -19 -4 -19 -10 0
-5 -9 -10 -20 -10 -11 0 -20 -4 -20 -10 0 -5 -8 -10 -19 -10 -10 0 -24 -7 -31
-15 -7 -8 -22 -15 -35 -15 -22 0 -43 32 -62 95 -4 16 -23 39 -43 52 -19 13
-43 29 -52 35 -20 13 -25 73 -8 83 6 3 10 21 10 39 0 27 -7 38 -35 57 -26 18
-35 29 -31 44 2 11 9 37 14 58 6 21 8 56 5 78 -6 43 11 89 34 89 7 0 13 3 13
8 0 4 17 18 37 32 20 14 41 30 47 35 22 21 66 45 81 45 8 0 15 5 15 10 0 6 10
10 23 10 13 0 27 4 33 9 14 13 42 19 109 20 49 1 64 -3 78 -19z m3332 -35 c14
-13 25 -30 25 -38 0 -29 31 -100 50 -117 21 -18 28 -70 10 -70 -5 0 -10 -12
-10 -26 0 -14 4 -23 9 -20 13 8 19 -25 14 -78 -4 -32 0 -54 11 -71 18 -28 12
-52 -15 -60 -11 -4 -17 -11 -14 -16 4 -5 -1 -9 -9 -9 -9 0 -16 -4 -16 -10 0
-5 -5 -10 -11 -10 -5 0 -27 -11 -47 -25 -20 -14 -47 -25 -59 -25 -12 0 -24 -4
-27 -8 -3 -5 -26 -9 -53 -11 -26 -1 -61 -6 -78 -11 -81 -23 -135 -34 -187 -38
-32 -2 -58 -7 -58 -12 0 -4 -11 -11 -25 -14 -15 -4 -25 -13 -25 -25 0 -10 -7
-24 -15 -31 -8 -7 -15 -19 -15 -26 0 -8 -3 -14 -8 -14 -7 0 -32 -91 -32 -119
0 -13 -24 -41 -35 -41 -7 0 -3 32 13 105 13 59 23 85 33 85 5 0 9 9 9 20 0 11
5 20 10 20 6 0 10 6 10 14 0 7 7 19 15 26 8 7 13 15 10 19 -2 4 3 20 11 35 7
16 14 43 14 61 0 18 6 35 13 38 9 3 9 9 0 25 -7 11 -8 22 -3 24 11 4 -5 204
-21 263 -6 22 -17 53 -25 68 -16 33 -19 77 -4 77 6 0 10 -13 10 -30 0 -18 5
-29 12 -28 7 2 15 -12 19 -32 3 -19 7 -29 8 -22 1 14 51 17 51 2 0 -5 7 -10
15 -10 7 0 38 -14 67 -31 29 -16 61 -33 71 -36 9 -3 17 -9 17 -14 0 -18 32 -8
58 19 15 16 42 37 59 47 18 10 34 29 38 42 3 13 10 23 15 23 6 0 10 16 10 35
0 19 5 35 10 35 6 0 10 9 10 19 0 55 27 65 65 26z m695 -394 c0 -6 89 -10 210
-11 189 -1 214 -3 245 -20 46 -26 165 -148 165 -169 0 -5 4 -11 9 -13 5 -1 11
-12 13 -23 3 -19 -3 -20 -100 -23 -63 -2 -100 -6 -97 -12 4 -6 -9 -10 -29 -10
-20 0 -36 -4 -36 -10 0 -5 -5 -10 -11 -10 -6 0 -25 -11 -43 -25 -50 -38 -74
-33 -36 7 11 12 20 25 20 30 0 16 -19 8 -38 -17 -11 -14 -27 -25 -36 -25 -10
0 -16 9 -16 25 0 14 -4 25 -10 25 -5 0 -10 9 -10 20 0 11 -4 20 -10 20 -5 0
-10 7 -10 15 0 8 -6 15 -13 15 -7 0 -18 9 -25 20 -7 11 -19 20 -27 20 -8 0
-15 5 -15 10 0 6 -7 10 -15 10 -8 0 -15 7 -15 15 0 8 -7 15 -15 15 -8 0 -15 7
-15 16 0 8 -4 12 -10 9 -5 -3 -10 1 -10 9 0 8 -11 26 -25 40 -28 28 -33 56
-10 56 8 0 15 -4 15 -9z m-4516 -18 c4 -9 4 -49 0 -89 -5 -59 -10 -75 -25 -79
-13 -4 -19 -16 -19 -36 0 -16 -4 -29 -10 -29 -5 0 -10 -7 -10 -15 0 -23 -18
-18 -52 14 -29 27 -30 30 -15 46 10 9 17 20 17 25 0 4 20 29 45 54 25 26 45
49 45 51 0 3 -9 5 -20 5 -11 0 -20 -3 -20 -8 0 -4 -10 -12 -22 -17 -32 -14
-98 -105 -98 -135 0 -15 -5 -31 -12 -38 -14 -14 -78 -16 -78 -2 0 6 -11 10
-25 10 -32 0 -45 28 -22 45 10 7 17 14 17 17 0 3 33 40 73 82 73 75 74 76 125
76 60 0 82 7 82 26 0 19 16 18 24 -3z m783 -174 c65 -10 84 -16 88 -30 4 -11
11 -19 16 -19 5 0 9 -15 9 -33 0 -31 -2 -33 -30 -29 -16 2 -35 10 -41 18 -6 8
-22 14 -35 14 -13 0 -24 5 -24 10 0 6 -8 10 -17 10 -28 0 -113 43 -113 57 0
16 38 17 147 2z m3819 -74 c13 -12 24 -27 24 -34 0 -6 5 -11 10 -11 6 0 10 11
10 25 0 14 -4 25 -8 25 -4 0 -9 11 -10 25 -3 44 24 29 53 -30 11 -22 23 -41
28 -43 4 -2 7 -21 7 -43 0 -21 5 -39 11 -39 7 0 9 -18 5 -52 -10 -96 -18 -138
-27 -138 -5 0 -9 -11 -9 -25 0 -14 -4 -25 -9 -25 -5 0 -13 -9 -16 -20 -8 -25
-25 -26 -25 -1 0 13 -9 20 -30 25 -18 3 -30 12 -30 21 0 23 -22 43 -51 47 -20
2 -24 8 -23 36 1 17 -1 32 -6 32 -12 0 -6 38 10 58 35 44 44 70 45 142 2 82 5
95 12 66 3 -10 16 -29 29 -41z m-3946 24 c0 -5 11 -9 25 -9 14 0 25 -4 25 -10
0 -5 8 -10 18 -10 9 0 26 -7 36 -15 11 -8 28 -15 38 -15 10 0 18 -4 18 -10 0
-5 7 -10 16 -10 36 0 56 -48 33 -80 -8 -11 -12 -12 -16 -2 -2 6 -11 12 -18 12
-8 0 -38 14 -67 31 -29 16 -61 33 -70 36 -10 3 -18 9 -18 14 0 5 -9 9 -20 9
-11 0 -20 4 -20 9 0 5 -10 11 -22 13 -25 3 -37 36 -18 48 14 9 60 1 60 -11z
m4130 -139 c0 -5 10 -10 22 -10 12 0 32 -10 43 -23 21 -23 61 -47 85 -50 8 -2
21 -6 28 -11 13 -8 88 -22 170 -33 23 -3 42 -9 42 -14 0 -5 11 -9 25 -9 14 0
25 -4 25 -10 0 -5 -5 -10 -12 -10 -6 0 -8 -3 -5 -6 7 -7 -23 -47 -78 -105 -19
-21 -35 -42 -35 -48 0 -6 -4 -11 -10 -11 -5 0 -10 -6 -10 -14 0 -7 -19 -33
-42 -57 -24 -24 -42 -47 -40 -51 1 -5 -5 -8 -13 -8 -8 0 -15 -4 -15 -10 0 -5
-7 -10 -15 -10 -9 0 -33 -11 -55 -25 -22 -14 -55 -25 -74 -25 -19 0 -36 -6
-38 -12 -6 -16 -338 -24 -338 -8 0 5 -14 10 -30 10 -48 0 -85 25 -185 123 -50
51 -101 99 -111 108 -57 48 -70 89 -29 89 16 0 41 -15 70 -43 24 -24 56 -49
72 -57 15 -8 38 -25 51 -37 13 -13 29 -23 37 -23 8 0 15 -4 15 -8 0 -16 107
-31 147 -21 64 17 123 41 123 50 0 5 6 9 14 9 8 0 16 7 20 15 3 8 11 15 18 15
13 0 58 62 58 80 0 5 5 10 10 10 6 0 10 13 10 29 0 16 5 31 10 33 6 2 12 13
13 26 1 25 27 31 27 6 0 -11 5 -14 16 -10 9 3 18 6 20 6 2 0 4 9 4 20 0 11 -4
20 -10 20 -5 0 -10 6 -10 14 0 8 -3 16 -7 18 -14 6 -44 68 -38 78 8 13 25 13
25 0z"/>
<path d="M4656 5101 c-5 -7 -48 -11 -117 -11 -88 0 -111 -3 -115 -15 -4 -8
-10 -12 -15 -9 -5 3 -9 -11 -9 -30 0 -20 -4 -36 -10 -36 -5 0 -10 -7 -10 -15
0 -8 -5 -15 -11 -15 -6 0 -17 -7 -26 -15 -22 -23 -22 -179 1 -203 9 -10 16
-24 16 -30 0 -7 5 -12 10 -12 6 0 10 -11 10 -25 0 -14 4 -25 9 -25 5 0 13 -9
16 -21 15 -47 36 -59 101 -59 39 0 64 -4 66 -12 3 -7 11 -9 24 -4 12 6 15 10
7 13 -26 9 -12 23 22 23 19 0 35 -4 35 -10 0 -6 51 -10 134 -10 79 0 137 4
141 10 3 6 22 10 41 10 21 0 33 -4 29 -10 -4 -6 -11 -8 -16 -5 -5 4 -9 0 -9
-7 0 -8 -12 -15 -27 -16 -14 -1 -27 -3 -29 -5 -7 -7 15 -102 25 -105 6 -2 11
-25 11 -50 0 -30 3 -42 9 -33 5 7 6 22 4 32 -4 13 0 19 11 19 21 0 21 36 1 57
-10 9 -13 23 -9 36 7 22 28 47 39 47 4 0 13 7 21 15 20 19 93 19 121 0 18 -13
22 -13 27 0 3 9 12 12 23 8 23 -9 48 -33 34 -33 -6 0 -11 -7 -11 -15 0 -23
-17 -18 -23 7 -5 18 -8 19 -22 8 -11 -9 -19 -10 -23 -3 -4 5 -34 9 -67 8 -73
-3 -74 -3 -55 -15 8 -5 11 -12 7 -16 -3 -4 -13 -2 -20 4 -10 9 -17 7 -30 -8
-16 -19 -16 -21 -1 -39 19 -21 30 -131 14 -131 -6 0 -10 11 -10 25 0 14 -3 25
-7 25 -5 0 -8 -15 -8 -32 0 -67 83 -105 98 -46 4 12 9 19 13 15 4 -4 13 -2 20
4 8 7 14 7 19 -1 3 -5 15 -10 26 -10 10 0 19 -4 19 -10 0 -20 19 -9 22 13 2
12 9 21 16 20 8 -2 12 13 12 47 0 29 5 50 11 50 5 0 7 -4 4 -10 -6 -10 31 -14
88 -10 30 2 75 39 96 78 12 23 11 24 -26 67 -7 7 -13 20 -13 27 0 10 -2 10 -9
-1 -7 -11 -9 -11 -13 0 -4 12 -7 12 -21 1 -14 -12 -17 -10 -23 12 -6 25 14 86
28 86 5 0 8 20 8 45 0 25 -4 45 -10 45 -5 0 -10 7 -10 15 0 8 -9 15 -20 15
-11 0 -20 4 -20 8 0 4 -15 9 -32 10 -18 2 -37 7 -42 12 -6 6 -23 10 -38 10
-15 0 -28 4 -28 8 0 4 -25 16 -55 27 -30 10 -55 22 -55 27 0 4 -11 8 -25 8
-14 0 -25 5 -25 10 0 6 -7 10 -17 10 -16 0 -81 44 -95 64 -4 6 -8 19 -8 29 0
24 -44 67 -70 67 -11 0 -20 -4 -20 -9 0 -10 -58 -7 -101 4 -16 4 -29 2 -33 -4z"/>
<path d="M4215 4706 c-15 -31 -22 -36 -51 -36 -40 0 -43 -9 -9 -34 19 -14 25
-28 25 -57 0 -37 0 -38 26 -24 18 9 35 10 57 4 18 -5 33 -9 35 -9 2 0 2 12 1
28 -2 32 10 72 22 72 21 0 7 18 -18 23 -16 4 -38 20 -50 38 l-21 31 -17 -36z"/>
<path d="M5482 4709 c-15 -18 -33 -29 -48 -29 -13 0 -24 -4 -24 -10 0 -5 4
-10 10 -10 5 0 12 -11 16 -25 3 -14 10 -22 15 -19 5 3 9 -9 9 -26 0 -28 2 -31
23 -24 12 4 27 7 32 7 6 0 20 -3 33 -7 20 -7 22 -4 22 29 0 36 18 65 39 65 6
0 11 5 11 10 0 6 -12 10 -27 10 -31 1 -56 17 -66 43 -9 23 -18 21 -45 -14z"/>
<path d="M4390 4539 c-14 -18 -27 -37 -29 -43 -2 -6 -8 -14 -13 -17 -14 -9 1
-36 23 -42 13 -3 17 -11 13 -21 -4 -11 -1 -16 10 -16 9 0 16 -7 16 -15 0 -8
-3 -15 -6 -15 -10 0 -34 28 -35 42 -1 7 -5 -3 -9 -22 -9 -39 -4 -52 11 -30 9
12 10 11 6 -5 -2 -11 2 -26 10 -33 13 -13 14 -11 17 18 1 19 67 14 79 -6 32
-56 87 -64 87 -12 0 25 3 28 20 23 18 -6 25 3 21 28 0 4 3 7 8 7 5 0 13 15 17
32 3 18 15 40 25 49 13 11 19 29 18 55 0 31 -2 35 -9 19 -8 -19 -9 -19 -9 3
-1 12 -4 22 -7 22 -12 0 -33 -29 -39 -53 -5 -18 -12 -23 -26 -20 -11 3 -19 14
-19 25 0 17 -3 18 -15 8 -13 -10 -15 -9 -15 9 0 19 -5 21 -52 20 -32 -2 -53 2
-56 9 -6 19 -15 14 -42 -19z"/>
<path d="M6038 4704 c-12 -11 -9 -59 3 -71 6 -6 14 -43 17 -82 2 -39 9 -71 15
-71 17 0 137 91 137 105 0 12 -29 35 -45 35 -15 0 -24 6 -58 36 -7 6 -23 14
-34 18 -12 4 -23 14 -25 22 -2 9 -6 12 -10 8z"/>
<path d="M4773 6289 c-5 -5 -21 -10 -37 -11 -15 -1 -32 -8 -38 -15 -6 -7 -23
-13 -39 -13 -33 0 -44 -13 -25 -30 19 -15 414 -14 433 1 7 6 22 9 33 6 13 -3
20 0 20 9 0 8 -10 14 -23 14 -13 0 -28 5 -34 11 -14 14 -80 22 -87 10 -3 -5
10 -12 29 -15 75 -14 18 -26 -126 -26 -149 0 -187 9 -106 26 25 6 42 15 42 23
0 16 -29 23 -42 10z"/>
<path d="M5966 3645 c-3 -10 -19 -15 -46 -15 -22 0 -40 -4 -40 -10 0 -5 -8
-10 -18 -10 -10 0 -24 -6 -31 -12 -11 -10 -14 -10 -18 0 -6 14 -33 16 -33 2 0
-5 -7 -10 -16 -10 -8 0 -35 -11 -60 -25 -25 -14 -51 -25 -59 -25 -8 0 -15 -4
-15 -8 0 -5 -25 -16 -55 -26 -30 -9 -57 -21 -60 -26 -4 -6 -15 -10 -26 -10
-10 0 -19 -4 -19 -10 0 -5 -8 -10 -17 -10 -10 0 -27 -7 -37 -15 -11 -8 -28
-15 -39 -15 -10 0 -15 -4 -12 -10 3 -5 -3 -10 -15 -10 -11 0 -28 -4 -38 -9 -9
-5 -35 -17 -57 -27 -22 -11 -41 -22 -43 -26 -2 -5 -10 -8 -18 -8 -19 0 -139
-65 -165 -89 -12 -11 -16 -21 -10 -25 9 -6 81 22 91 36 3 4 17 8 30 11 14 2
39 9 55 17 17 7 39 16 50 20 11 4 45 20 76 34 31 14 61 26 67 26 7 0 12 5 12
10 0 6 11 10 25 10 14 0 25 5 25 10 0 6 9 10 19 10 21 0 84 30 89 43 2 4 12 7
22 7 10 0 30 7 46 14 15 8 31 13 36 10 4 -3 8 -1 8 4 0 5 21 17 48 26 26 10
55 21 64 27 10 5 22 9 28 9 10 0 21 8 55 38 7 6 23 12 34 12 12 0 21 5 21 10
0 6 14 10 30 10 17 0 30 4 30 9 0 5 14 11 30 15 41 8 38 26 -4 26 -21 0 -36
-6 -40 -15z"/>
<path d="M6522 3058 c-133 -9 -132 -8 -132 -194 l0 -146 37 -52 c21 -28 41
-53 45 -54 5 -2 6 -8 2 -13 -3 -5 0 -9 5 -9 6 0 11 -7 11 -15 0 -8 4 -15 9
-15 5 0 14 -13 20 -28 6 -15 23 -36 36 -46 14 -10 25 -26 25 -34 0 -8 10 -23
23 -34 20 -18 22 -29 22 -106 l0 -87 -34 0 c-33 0 -35 2 -36 35 0 19 -7 44
-14 56 -15 22 -71 49 -71 33 0 -5 -7 -9 -15 -9 -8 0 -15 5 -15 10 0 16 -27 11
-34 -6 -3 -9 -6 -68 -6 -132 1 -164 -10 -156 191 -149 217 8 203 -7 197 214
-5 163 -6 172 -29 197 -40 42 -50 56 -42 56 4 0 0 5 -10 11 -9 6 -15 14 -12
20 4 5 -1 12 -9 15 -9 3 -16 10 -16 16 0 5 -11 19 -25 32 -14 13 -25 31 -25
40 0 9 -4 16 -10 16 -5 0 -10 5 -10 10 0 6 -11 23 -25 38 -21 22 -25 38 -26
89 -1 35 -2 69 -3 76 -1 7 13 13 34 15 38 2 72 -13 55 -25 -18 -14 -16 -52 3
-74 17 -17 29 -20 79 -17 l58 3 3 117 3 117 -28 18 c-30 20 -78 22 -231 11z"/>
<path d="M5580 3050 c11 -7 7 -10 -18 -10 -18 0 -39 -6 -45 -12 -26 -27 -37
-111 -31 -228 4 -63 7 -236 8 -385 1 -148 6 -281 10 -295 5 -14 21 -35 35 -47
24 -21 36 -23 154 -23 132 0 158 7 195 50 17 20 7 541 -11 552 -15 10 -148 5
-165 -6 -17 -10 -16 -111 1 -128 15 -15 33 -281 21 -311 -7 -18 -44 -24 -44
-6 0 5 -4 7 -10 4 -5 -3 -10 -1 -10 5 0 153 -14 569 -20 580 -6 12 -7 85 0 85
1 0 3 8 5 18 5 26 15 34 24 19 4 -7 15 -10 24 -7 17 7 39 -24 43 -64 4 -33 7
-34 65 -32 59 2 73 7 65 26 -2 7 -2 15 0 18 3 3 7 37 9 76 4 57 2 73 -10 77
-8 4 -15 12 -15 20 0 9 -11 14 -31 14 -17 0 -28 4 -24 10 4 6 -7 10 -24 10
-18 0 -31 -5 -31 -12 0 -10 -3 -9 -9 1 -7 11 -9 11 -14 0 -4 -10 -6 -10 -6 -1
-1 6 -6 12 -12 12 -5 0 -7 -4 -4 -10 4 -6 -12 -10 -40 -10 -34 0 -44 3 -39 13
5 8 2 8 -9 -2 -11 -9 -17 -10 -17 -2 0 6 -8 11 -17 11 -15 0 -16 -2 -3 -10z"/>
<path d="M6028 3042 c-60 -2 -78 -6 -78 -17 0 -8 -5 -15 -10 -15 -7 0 -9 -138
-4 -437 9 -553 -9 -512 217 -513 209 0 197 -15 200 253 1 114 6 207 11 207 5
0 4 6 -2 13 -5 7 -12 111 -15 244 -6 286 2 271 -142 269 -55 -1 -135 -2 -177
-4z m154 -199 c3 -32 6 -186 7 -343 l2 -285 -46 3 -45 4 0 278 c0 152 -3 305
-6 339 l-7 61 46 0 45 0 4 -57z"/>
<path d="M5097 3033 c-4 -3 -7 -92 -7 -197 1 -125 -3 -192 -9 -194 -16 -5 -14
-149 2 -154 9 -4 13 -59 15 -221 l3 -217 170 0 169 0 0 70 c0 63 -2 70 -20 70
-11 0 -20 3 -20 8 0 4 -29 7 -64 7 -35 0 -67 2 -70 5 -7 7 -10 270 -3 277 3 3
40 6 82 7 44 1 80 7 84 14 3 6 6 28 5 49 -1 21 -3 50 -3 66 l-1 27 -90 0 -90
0 0 119 c0 99 3 120 16 125 9 3 51 6 94 6 73 0 78 1 73 20 -3 11 1 28 8 37 10
12 10 14 2 9 -8 -4 -13 -1 -13 8 0 9 6 16 13 16 8 0 7 4 -3 10 -10 6 -11 10
-2 10 6 0 12 5 12 11 0 5 -4 7 -10 4 -5 -3 -10 -1 -10 4 0 12 -322 16 -333 4z"/>
<path d="M4457 3023 c-4 -3 -7 -107 -7 -229 0 -138 -4 -225 -10 -229 -14 -8
-13 -112 1 -117 10 -3 14 -65 22 -338 l2 -75 35 -3 c19 -2 54 -1 78 3 l44 7
-6 56 c-3 31 -6 64 -6 72 0 8 0 70 -1 138 l0 122 45 0 46 0 0 -172 c0 -95 3
-183 6 -195 6 -21 12 -23 86 -23 l79 0 -2 191 c-1 156 -5 197 -18 220 -9 16
-19 29 -23 29 -5 0 -8 11 -8 25 0 14 5 25 10 25 6 0 10 87 10 240 0 207 -2
240 -15 240 -8 0 -15 5 -15 10 0 11 -342 14 -353 3z m208 -150 c17 -10 19 -24
21 -147 l3 -136 -40 0 -39 0 0 150 c0 162 1 164 55 133z"/>
<path d="M3622 2946 l3 -71 53 -3 c41 -2 52 -7 53 -20 0 -9 3 -194 5 -410 3
-322 7 -396 18 -408 15 -14 83 -19 124 -8 l22 6 0 413 0 413 33 7 c67 13 77
24 77 80 0 33 -5 57 -14 64 -10 9 -68 11 -196 10 l-181 -3 3 -70z"/>
<path d="M4054 3009 c-4 -7 -6 -62 -4 -123 5 -197 2 -256 -12 -256 -5 0 -8
-25 -7 -55 1 -30 0 -58 -4 -61 -3 -4 2 -19 13 -34 18 -26 20 -45 20 -227 0
-109 4 -204 8 -211 7 -9 48 -12 173 -10 l164 3 3 67 c3 61 1 67 -20 74 -23 7
-120 9 -148 2 -13 -2 -15 19 -18 143 l-3 146 53 6 c60 6 107 15 121 24 5 3 6
26 2 52 -12 85 -7 81 -98 81 l-82 0 3 125 c2 69 7 126 13 126 5 1 14 3 19 4 6
1 42 3 80 4 l70 1 0 65 0 65 -169 0 c-116 0 -172 -4 -177 -11z"/>
<path d="M3295 3000 c-4 -6 -4 -225 0 -487 6 -370 11 -480 21 -490 9 -9 48
-13 134 -13 106 0 121 2 126 18 3 9 10 25 15 35 5 9 5 17 1 17 -5 0 -7 13 -4
30 5 38 -13 55 -63 58 -22 2 -43 8 -47 15 -17 26 -20 60 -7 83 10 20 11 29 1
45 -9 13 -9 19 -1 19 8 0 9 34 4 118 -7 119 -7 132 -6 167 1 11 -1 81 -3 155
-3 74 -5 159 -5 188 l-1 52 -79 0 c-45 0 -83 -5 -86 -10z"/>
<path d="M2931 2963 c-7 -21 -17 -76 -22 -123 -4 -47 -13 -116 -19 -155 -20
-131 -31 -220 -36 -292 -3 -40 -9 -73 -14 -73 -5 0 -10 -30 -13 -67 -2 -38
-10 -93 -17 -123 -8 -32 -10 -71 -6 -93 l7 -37 74 0 c85 0 77 -10 96 123 l13
87 32 0 c30 0 32 -3 38 -45 4 -25 4 -49 1 -55 -3 -5 -1 -10 4 -10 6 0 11 -13
11 -29 0 -56 6 -61 80 -61 84 0 96 11 86 78 -26 179 -32 211 -38 218 -5 4 -8
35 -8 68 0 35 -7 73 -15 90 -8 16 -15 54 -15 87 0 33 -4 59 -10 59 -5 0 -10
24 -10 54 0 30 -5 67 -11 83 -6 15 -16 60 -21 98 -5 39 -11 89 -14 113 l-6 42
-77 0 -78 0 -12 -37z"/>
<path d="M174 1460 c7 -71 24 -381 31 -555 3 -70 1 -99 -4 -80 -7 24 -9 13
-11 -50 l-2 -80 -8 60 c-4 33 -13 130 -19 215 -20 267 -23 305 -28 310 -3 3
-3 -44 0 -105 4 -67 3 -97 -2 -77 -14 55 -17 46 -16 -48 0 -50 -3 -90 -7 -90
-4 0 -8 43 -10 95 -2 59 1 95 7 95 10 0 10 198 0 208 -3 3 -6 -42 -6 -99 -1
-97 -2 -100 -10 -50 -14 84 -19 73 -14 -30 3 -58 2 -86 -3 -74 -5 11 -13 83
-17 160 -4 77 -11 147 -16 155 -11 20 -11 11 1 -121 9 -96 25 -319 36 -504 3
-38 9 -94 14 -124 11 -62 13 -117 4 -108 -8 8 -17 91 -44 412 -37 422 -37 425
-38 370 -1 -27 3 -106 9 -175 20 -230 24 -310 18 -310 -8 0 -19 99 -29 260
l-8 125 2 -177 c0 -98 4 -178 7 -178 6 0 16 -108 24 -255 6 -120 -4 -69 -20
100 l-14 150 5 -115 c2 -63 6 -149 8 -190 3 -59 2 -64 -3 -20 -4 30 -7 -83 -8
-252 -1 -271 4 -351 20 -290 4 16 5 16 6 0 2 -26 19 -22 24 4 l4 23 2 -22 c1
-18 7 -23 30 -23 20 0 31 6 34 18 4 16 5 16 6 0 2 -29 21 -20 22 10 l1 27 8
-30 c7 -28 8 -27 10 15 1 25 4 36 7 25 2 -11 6 -30 9 -42 5 -25 39 -32 47 -10
4 10 6 10 6 0 1 -8 15 -13 35 -13 28 0 35 4 39 22 4 22 4 22 7 -2 2 -14 6 2
10 35 l7 60 1 -57 c2 -55 3 -58 28 -58 24 0 26 3 21 30 -4 16 -2 32 3 35 6 4
10 -9 10 -29 0 -29 4 -36 20 -36 17 0 20 7 21 43 l1 42 10 -42 c9 -43 9 -43
55 -43 l46 0 -7 67 c-15 153 -19 183 -26 183 -5 0 -11 -32 -15 -71 -4 -38 -8
-69 -10 -67 -8 11 -13 98 -5 93 6 -4 10 21 10 66 0 40 3 69 7 65 4 -4 6 -22 5
-41 -2 -25 2 -35 12 -35 16 0 21 -25 31 -165 3 -44 11 -84 16 -90 8 -7 9 15 6
70 l-5 80 10 -77 c11 -80 23 -100 31 -50 l4 27 2 -27 c1 -29 15 -38 24 -15 4
9 6 9 6 0 1 -7 11 -13 24 -13 18 0 19 2 7 10 -12 8 -10 10 8 10 13 0 20 -4 17
-10 -3 -5 -2 -10 4 -10 5 0 12 6 14 13 4 9 6 9 6 0 1 -7 5 -13 9 -13 5 0 7 26
5 57 -3 43 -2 54 6 43 13 -18 13 -17 11 82 -1 42 -5 89 -10 105 -9 26 -9 26
-9 -12 3 -146 -7 -151 -16 -8 -5 69 -3 103 4 107 7 5 11 -4 11 -23 0 -17 4
-31 8 -31 16 0 32 -101 31 -193 -1 -62 -4 -84 -9 -67 -7 21 -8 19 -9 -17 -1
-24 4 -43 9 -43 6 0 10 8 11 18 0 14 2 14 9 -3 7 -15 9 -10 9 23 1 24 6 42 12
42 7 0 9 -11 6 -27 -7 -36 4 -64 14 -37 7 17 8 17 8 2 1 -10 6 -18 12 -18 8 0
10 21 7 65 -3 49 -1 65 9 65 8 0 13 12 13 29 0 16 6 32 13 34 6 3 3 6 -8 6
-17 1 -17 3 -5 11 22 14 27 12 35 -12 l7 -23 7 24 c4 14 4 49 1 78 -9 83 6 62
17 -24 9 -70 10 -64 5 62 -2 77 -8 167 -12 200 -8 59 -8 58 -6 -23 1 -64 -2
-85 -14 -92 -13 -8 -12 -10 3 -10 12 0 17 -8 17 -26 0 -20 -4 -25 -16 -20 -14
5 -15 -2 -12 -54 2 -43 -1 -60 -9 -60 -24 0 -28 5 -29 35 -4 97 -27 361 -31
365 -8 7 12 -402 22 -462 2 -16 0 -28 -5 -28 -6 0 -10 7 -10 15 0 8 -4 15 -9
15 -4 0 -7 -13 -5 -30 2 -16 -1 -30 -6 -30 -6 0 -10 19 -11 43 0 23 -2 60 -4
82 l-4 40 11 -35 c5 -19 12 -41 14 -49 3 -8 6 -12 7 -10 5 6 -12 274 -22 369
-8 72 -9 57 -6 -95 3 -126 1 -164 -5 -125 -5 30 -10 98 -11 150 -2 52 -6 109
-10 125 -7 29 -5 -101 5 -335 3 -81 2 -100 -4 -65 -4 28 -9 84 -9 125 -1 52
-4 70 -11 60 -5 -8 -10 -26 -10 -39 0 -13 -2 -22 -5 -20 -2 3 -10 73 -16 155
-6 82 -15 154 -20 159 -7 7 -9 5 -5 -5 7 -22 16 -243 9 -237 -3 3 -9 30 -13
59 -7 42 -8 27 -7 -67 3 -146 -10 -94 -19 78 -3 64 -9 117 -13 117 -5 0 -7
-51 -5 -112 2 -85 1 -102 -6 -68 -12 65 -12 223 0 215 6 -3 10 1 10 9 0 9 -7
16 -15 16 -8 0 -15 7 -15 15 0 9 6 12 15 9 11 -4 15 0 15 16 0 15 -5 20 -14
17 -10 -4 -17 2 -20 16 -3 12 -3 -52 0 -143 5 -178 -2 -212 -12 -59 -9 126
-16 128 -13 4 3 -82 1 -100 -11 -100 -12 0 -15 -15 -14 -75 l2 -75 -9 85 c-5
47 -14 112 -19 145 -10 65 -9 37 7 -225 3 -58 3 -102 0 -99 -4 3 -9 46 -12 95
-4 49 -8 100 -10 114 -3 13 -7 76 -11 140 -4 63 -11 122 -15 130 -9 14 -8 -29
6 -220 4 -41 8 -85 11 -98 2 -12 0 -22 -6 -22 -5 0 -10 7 -10 15 0 9 -7 18
-15 21 -10 4 -15 20 -16 48 0 22 -4 50 -8 61 -5 11 -7 -21 -5 -75 1 -52 0 -82
-2 -67 -5 27 -6 27 -19 11 -12 -16 -14 -8 -20 63 -4 46 -11 80 -16 78 -7 -5
-5 -51 6 -143 2 -18 0 -30 -4 -27 -5 2 -12 43 -16 90 -4 47 -11 85 -16 85 -8
0 -5 -60 10 -182 4 -32 4 -63 0 -69 -4 -7 -10 24 -13 67 -4 43 -10 104 -14
134 l-7 55 -3 -63 c-2 -36 -7 -60 -12 -57 -6 4 -11 -18 -11 -52 l-2 -58 -8 60
c-5 33 -13 96 -18 140 l-10 80 4 -69 c2 -42 0 -63 -6 -55 -5 8 -9 39 -9 69 0
30 -4 71 -9 90 -5 19 -14 107 -20 195 -26 367 -41 594 -41 616 0 12 -3 20 -6
16 -7 -7 8 -287 37 -671 11 -147 18 -270 16 -272 -5 -5 -11 51 -33 311 -14
168 -20 255 -43 608 -5 76 -12 142 -16 145 -4 4 -4 -22 -1 -58z m-77 -543 c3
-66 10 -117 16 -117 6 0 7 23 4 60 -7 63 -2 76 12 38 6 -15 8 7 5 62 -3 46 -2
82 1 78 7 -7 35 -338 33 -393 -1 -51 -16 52 -17 120 -1 33 -6 67 -12 75 -8 11
-9 -6 -4 -60 13 -163 15 -225 6 -200 -5 14 -10 59 -10 100 -1 41 -6 82 -12 90
-8 11 -9 -5 -5 -57 3 -43 1 -73 -5 -73 -5 0 -9 22 -9 50 0 27 -4 93 -9 147
-19 190 -20 216 -10 206 5 -5 12 -62 16 -126z"/>
<path d="M303 1220 c0 -36 -4 -110 -8 -164 -7 -92 -8 -97 -20 -70 -11 25 -12
11 -8 -91 3 -66 9 -127 14 -135 7 -11 9 -9 8 10 -1 14 0 45 1 70 l3 45 7 -45
c7 -43 7 -42 8 22 1 36 -2 68 -6 70 -4 2 -5 46 -2 98 4 52 8 84 9 70 1 -14 4
-63 7 -110 3 -47 9 -143 15 -215 6 -71 12 -161 14 -199 2 -37 7 -71 11 -75 6
-5 1 106 -11 244 -2 28 -9 142 -15 255 -12 225 -26 336 -27 220z"/>
<path d="M364 1205 c3 -11 7 -87 11 -170 3 -82 8 -179 11 -215 3 -36 9 -121
14 -188 5 -68 12 -127 16 -130 4 -4 4 34 0 84 -16 229 -18 262 -8 267 8 6 12
-39 28 -348 2 -49 9 -103 14 -120 10 -31 8 84 -5 220 -10 113 -14 180 -15 228
0 34 -4 47 -14 47 -21 0 -24 18 -32 175 -3 77 -11 147 -16 155 -7 12 -8 11 -4
-5z"/>
<path d="M995 384 c4 -81 -10 -92 -18 -14 -3 25 -4 -9 -2 -76 2 -67 -1 -127
-6 -135 -6 -10 -9 -10 -9 -1 0 16 -32 16 -49 -1 -11 -9 -13 -9 -7 1 4 6 2 12
-4 12 -8 0 -9 -14 -5 -43 5 -32 3 -48 -8 -59 -10 -9 -13 -25 -9 -43 5 -26 6
-27 13 -10 6 17 8 17 8 3 1 -10 6 -18 12 -18 6 0 8 15 4 44 -5 28 -3 46 4 50
7 5 11 -9 11 -43 0 -28 5 -51 10 -51 6 0 10 6 10 13 0 8 4 7 10 -3 7 -10 10 6
10 54 0 38 2 67 5 64 5 -4 13 -71 15 -115 0 -20 20 -15 21 5 0 14 2 14 8 -3 6
-15 9 -6 12 33 2 30 2 56 -1 59 -5 5 -6 11 -9 71 0 17 -5 32 -11 32 -6 0 -7
-32 -3 -82 3 -46 3 -80 -1 -76 -4 3 -11 61 -14 127 -6 96 -4 121 6 121 10 0
13 20 11 80 -1 44 -5 80 -10 80 -4 0 -6 -34 -4 -76z"/>
</g>
</svg>
